<?xml version="1.0" standalone="no"?>
<!DOCTYPE svg PUBLIC "-//W3C//DTD SVG 1.1//EN" "http://www.w3.org/Graphics/SVG/1.1/DTD/svg11.dtd" >
<svg xmlns="http://www.w3.org/2000/svg">
<metadata></metadata>
<defs>
<font id="relational_database_scriptMd" horiz-adv-x="592" >
<font-face units-per-em="2048" ascent="1638" descent="-410" />
<missing-glyph horiz-adv-x="885" />
<glyph unicode=" "  horiz-adv-x="885" />
<glyph unicode="&#x09;" horiz-adv-x="885" />
<glyph unicode="&#xa0;" horiz-adv-x="885" />
<glyph unicode="!" horiz-adv-x="393" d="M21 284q0 28 71 94.5t93 66.5q68 -2 134.5 -82.5t51.5 -145.5q-11 -46 -78 -117.5t-101 -71.5t-74 33q-29 23 -63 102t-34 121zM72 1428q-9 32 25 57q34 24 48 22.5t49 -32.5q25 -24 29.5 -39t-6.5 -57q-10 -50 -7 -90.5t-7 -185.5q-8 -97 -4 -161t25 -157 q27 -107 -61 -123q-51 -10 -70 4q-19 17 -17 143.5t25 277.5q16 118 13.5 162t-42.5 179z" />
<glyph unicode="&#x22;" horiz-adv-x="533" d="M21.5 1001.5q-0.5 15.5 12.5 59.5q16 48 17.5 130.5t-4 152t-2 130t22.5 72.5q44 34 97 6q28 -14 29.5 -38.5t-23.5 -51.5q-14 -17 -17 -59t7 -181q8 -105 9 -156t-5 -84.5t-18 -42.5t-40 -11t-42.5 4t-26.5 28q-16 26 -16.5 41.5zM336 987.5q0 16.5 14 61.5 q21 60 22.5 266.5t15.5 234.5q15 28 31 31t50 -15q36 -19 42 -37.5t-4 -77.5q-26 -128 -30 -190.5t2 -147.5q10 -118 0 -156.5t-57 -42.5q-46 -7 -70 32q-16 25 -16 41.5z" />
<glyph unicode="#" horiz-adv-x="1244" d="M21 1057q-5 34 24 39t118 -13q103 -21 221 -8q44 4 65.5 8t43.5 12t28 13t19 23t17 33t19 49.5t30 66.5q30 63 42 78t42 13q36 -4 45.5 -36.5t-16.5 -62.5q-24 -26 -55.5 -82.5t-31.5 -71.5q0 -9 19.5 -11t42.5 1t36 12q15 8 69 19q43 8 73.5 36.5t30.5 62.5 q0 26 41 80.5t62 54.5q30 0 60.5 -27.5t30.5 -52.5q0 -24 -8.5 -27.5t-35.5 0.5q-34 4 -40.5 -4t-12.5 -58q0 -18 111 -25l113 -8v-44q0 -30 -6.5 -37t-31.5 -5q-148 14 -199 0t-61 -73q-4 -25 -37 -124t-59.5 -182.5t-19.5 -85.5q10 -6 166 12q125 13 170.5 7.5t51.5 -33.5 q4 -21 -34.5 -32t-100 -15t-127 -9.5t-121.5 -25.5t-74 -55q-32 -59 -73.5 -183.5t-70.5 -188.5q-38 -89 -40 -111q0 -28 -21 -53.5t-43 -25.5q-25 0 -31.5 24.5t4.5 62.5t24.5 76.5t25 74.5t11.5 51q0 30 21 53q24 26 62 101.5t46 114.5l10 42l-88 -10q-91 -10 -108 -17 t-8 -39q9 -36 -31 -93q-28 -42 -70.5 -126.5t-42.5 -100.5q0 -9 -25 -36.5t-35 -27.5q-13 0 -37 23q-14 15 -12 30t27 63q38 72 38 85q0 10 30 75.5t34 97.5q2 27 -12 33.5t-83 12.5q-99 6 -125 27q-36 30 -21 70q12 32 44 12q17 -10 100 -16.5t115 2.5q34 8 45 42 q101 336 88 358q-8 13 -160 2q-95 -4 -138.5 -1t-89.5 23q-74 28 -80 61zM477 578q8 -8 108.5 5.5t112.5 26.5q19 14 53 124l70 206q34 101 25 110t-17 7q-141 -24 -191 -44.5t-50 -58.5q0 -21 -14.5 -37.5t-14.5 -40.5t-23 -96.5t-43 -135t-16 -66.5z" />
<glyph unicode="$" horiz-adv-x="860" d="M21 504q0 94 51 110t93 -66q18 -38 12 -56.5t-38 -10.5q-40 10 -36 -16q2 -19 30 -56q38 -51 38 -67q0 -10 22 -10t50.5 7t43.5 19q19 15 19 79.5t30 239.5q2 4 2 13q10 55 14 78t7.5 57t3.5 43.5t-6.5 29.5t-11.5 23t-23 15t-32 16t-45 14q-4 2 -7 2q-112 38 -135 52 t-23 47q0 24 43.5 59.5t81.5 44.5q30 6 50.5 16.5t41.5 24.5t43 22q30 14 34 29t-1 79q-4 51 -8.5 91t-10.5 89.5t-12 87.5l-8 77h101l10 -131q10 -141 21 -191.5t27 -50.5q26 0 39.5 71.5t5.5 156.5q-11 103 -17 125q-2 6 -1 10t9.5 6t22 3t34.5 1h76l20 -81 q16 -83 28.5 -83t12.5 -23q0 -15 -5 -16t-24 10q-58 31 -60 -45q0 -38 12 -48.5t31 -1t43.5 22.5t47.5 21t42 -4q25 -15 29.5 -44.5t-14.5 -57.5q-14 -19 -23 -21t-24 10.5t-29.5 10.5t-50.5 -19l-56 -27l-10 -384l85 -86q70 -70 91 -107t11 -74q-13 -49 -70 -127t-101 -108 q-57 -38 -64 -61q-12 -40 -18.5 -143.5t4.5 -116.5q14 -27 14 -79.5t-14 -65.5q-26 -20 -62.5 -1.5t-38.5 52.5q-2 70 2 147.5t8 105t-2 53.5q-6 14 -55 -7q-34 -12 -41.5 -26t-7.5 -64q0 -49 -7.5 -65t-33.5 -31q-30 -16 -40 -15t-24 19q-15 17 -16 39.5t6.5 48.5t7.5 31 q2 12 -22.5 26t-62.5 20q-40 8 -101 86q-38 47 -48.5 74t-10.5 72zM260 1089q0 -11 47 -35t53 -18q3 2 10.5 30.5t8.5 53.5t-16 27q-17 -2 -60 -26t-43 -32zM384 378q13 -12 59 11.5t54 47.5q9 23 23 164.5t26 168.5q8 24 4.5 36t-29.5 36q-59 56 -68 34q-8 -32 -15 -96.5 t-15 -116t-16 -64.5q-8 -8 -8 -14.5t3 -14t2 -34.5t-10 -67q-18 -83 -10 -91zM468 1095q-1 -99 7 -105q2 -2 38 -14q26 -8 28.5 7t0.5 108q-2 78 -8.5 102t-20.5 29q-26 4 -36 -16q-8 -12 -9 -111zM610 567.5q0 -52.5 6 -60.5q21 0 64 54.5t43 84.5q0 18 -19.5 53t-43 57.5 t-30.5 8.5q-6 -12 -13 -78.5t-7 -119z" />
<glyph unicode="%" horiz-adv-x="1300" d="M21.5 977.5q6.5 125.5 79.5 218.5q46 56 46 69t32 30q53 25 84 14t79 -71q61 -78 41 -90.5t5 -12.5q21 0 46 -48.5t28 -94.5q5 -53 -16.5 -113t-55.5 -92q-105 -97 -174 -101t-136 81q-65 85 -58.5 210.5zM104 946.5q5 -43.5 43 -94.5q38 -53 63.5 -59t67.5 28 q146 113 64 292q-34 79 -55 75q-6 0 -7 -15q0 -12 16 -28t16 -28t-30.5 -28t-72.5 6q-38 20 -51 12t-35 -61q-24 -56 -19 -99.5zM194 109q-2 47 11.5 72.5t55 71t73.5 95.5q63 101 310 354q109 115 274 298t189 222q17 27 33 91.5t46 74.5q29 13 37.5 13t34.5 -13 q76 -42 -127 -281q-131 -154 -410 -432q-151 -152 -202 -218l-114 -149q-45 -59 -51 -78t6.5 -53t7.5 -46.5t-41 -43.5q-53 -45 -91 -41q-24 2 -30.5 14t-11.5 49zM846 555q-4 27 72 69q68 40 110.5 43.5t82.5 -30.5q59 -47 75 -125.5t-22 -153.5q-26 -52 -110 -131.5 t-113 -79.5t-61 32q-24 28 -29 101.5t0 143t-5 131.5zM950 384q-9 -78 5.5 -92t61.5 28q38 36 62 85.5t24 89.5q0 34 -10 41.5t-53 3.5q-40 -6 -61 -42t-29 -114z" />
<glyph unicode="&#x26;" horiz-adv-x="1676" d="M22.5 550.5q3.5 46.5 38.5 115.5q12 26 16.5 43t2.5 22t2.5 13.5t18.5 22.5q30 28 30 56q0 19 38 52.5t50.5 72.5t31.5 66.5t27.5 35t13 32.5t-11.5 57q-30 95 -84 211q-30 61 -10.5 140.5t78.5 142.5l52 54h155q52 0 78.5 -1t51.5 -8t34 -14.5t17 -32.5t8 -50v-73 q0 -72 -8 -109.5t-40 -98.5q-38 -74 -83.5 -128t-64.5 -78.5t-11 -53.5q8 -32 34 -59t34 -49q38 -86 123 -157l56 -49l41 35q27 26 43.5 55.5t21 44.5t18 24t45.5 7q28 -4 38.5 -12.5t12.5 -33.5q10 -72 -89 -186l-48 -54l59 -51q58 -48 84 -48q50 0 48 -56q-2 -57 -46 -75 q-50 -24 -105 57q-42 60 -100 92l-57 34l-54 -64q-26 -27 -49 -45.5t-38.5 -28.5t-59 -33t-73.5 -40q-74 -42 -156 -40q-70 0 -108.5 29.5t-81.5 109.5q-27 57 -23.5 103.5zM157 572q-9 -65 9.5 -94t80.5 -41q47 -9 141.5 36.5t153.5 106.5l57 60l-27 42q-27 41 -99 115 q-45 49 -64 86t-21 50t-13.5 17t-83.5 -93.5t-72 -117.5q0 -9 -12.5 -27t-28 -54t-21.5 -86zM301 1475.5q-5 -18.5 1 -68.5q10 -65 48 -146.5t59 -81.5q8 0 15 8.5t7 18.5q0 30 20 48q24 20 68 122.5t38 123.5q-8 18 -44 41t-84.5 27t-92.5 -43q-30 -31 -35 -49.5z M1433 -363q0 15 22 15t22 -15t-24 -15q-20 0 -20 15zM1568 -363q0 15 44 15t44 -15t-44 -15t-44 15z" />
<glyph unicode="'" horiz-adv-x="429" d="M21.5 913q2.5 49 50.5 104q53 62 53 78q0 39 135 240q42 63 61 80.5t44 15.5q48 -7 44 -51.5t-57 -105.5q-52 -59 -99.5 -145.5t-67.5 -158.5q-16 -65 -52 -100t-70 -22q-44 16 -41.5 65z" />
<glyph unicode="(" horiz-adv-x="606" d="M24.5 863.5q9.5 153.5 34.5 189.5q16 23 32 48.5t27 41t27 34.5q26 28 26 40q0 9 23 27t54 43.5t43 49.5q19 38 92.5 73t147.5 37q28 0 36.5 -8t14.5 -42q10 -53 -8 -77q-15 -18 -43.5 -20t-39.5 14q-18 32 -81.5 -4t-117.5 -87.5t-52 -60.5q2 -6 -26.5 -35.5 t-28.5 -41.5q0 -15 -25 -42.5t-35 -160.5q-13 -127 9.5 -259t65.5 -210.5t89 -64.5q26 8 80 -14q34 -13 44.5 -25.5t10.5 -38.5q0 -42 -23 -78q-26 -34 -65.5 -22.5t-111.5 77.5q-61 55 -93 100t-42.5 72.5t-25.5 99t-29 123.5q-19 68 -9.5 221.5z" />
<glyph unicode=")" horiz-adv-x="640" d="M21.5 1423q1.5 42 24.5 54q47 19 69 9.5t53 -31.5t51 -22q19 0 106.5 -65.5t105.5 -74.5q25 -9 16 -25q-4 -6 -3 -9t7 -3q26 4 47 -13t61 -83q40 -59 50.5 -90.5t10.5 -86.5q0 -144 -66.5 -327t-173.5 -340l-106 -157q-74 -115 -127 -72q-20 18 -3 51t96 124 q76 86 227 386q36 72 52.5 210t-4.5 184l-34 71q-19 41 -157.5 136t-209.5 95q-56 0 -76 17q-18 20 -16.5 62z" />
<glyph unicode="*" horiz-adv-x="710" d="M32.5 1106q30.5 43 94.5 43q103 0 46 51q-34 30 -47.5 72t1.5 70q23 42 70.5 28.5t47.5 -62.5q0 -30 49 -80q40 -40 76.5 -46.5t65.5 16t53 48.5t51.5 47t49.5 19q38 -6 42.5 -49t-30.5 -71l-34 -28l56 -23q55 -23 55 -28.5t9 -29.5q6 -17 -12 -29t-49.5 -15t-73.5 5 q-84 15 -66 -19q10 -19 57 -51q139 -101 40 -183q-26 -19 -62.5 4.5t-36.5 56.5q0 30 -54.5 89t-82.5 59q-24 0 -63.5 -46.5t-39.5 -73.5q0 -38 -38 -55t-84.5 -5.5t-65.5 47.5q-15 30 -9.5 42.5t45.5 44.5q54 46 87 46t52 23q14 16 11 19.5t-28 -2.5q-139 -38 -171 -11 q-42 34 -11.5 77z" />
<glyph unicode="+" horiz-adv-x="965" d="M36 588q-42 49 19 91q64 44 158 23q61 -12 146.5 8t107.5 20q32 0 40 42q10 51 12 154t-6 112q-32 31 21 80q29 29 41.5 29t36.5 -27q14 -15 17 -32t0 -32.5t-9 -58.5t-8 -92q-4 -70 -13 -122l-11 -53h62q44 0 86.5 13.5t90.5 5.5q63 -8 95 -53q24 -30 25 -40t-17 -28 q-26 -23 -101.5 -12.5t-138 22.5t-112.5 -24q-26 -28 -36.5 -122.5t4.5 -164.5q30 -129 17 -162q-6 -19 -48 -17.5t-60 23.5q-16 19 -17 94t13 98q8 12 12 79t-2 127.5t-16 58.5q-12 -2 -90.5 -11t-145 -19t-74.5 -20q-17 -15 -49.5 -11.5t-49.5 21.5z" />
<glyph unicode="," horiz-adv-x="499" d="M40 -350q-44 44 8.5 83t96.5 39q30 0 129 95q70 63 84.5 87.5t14.5 66.5q0 124 -111 130q-45 2 -53 12t-10 54q-4 36 2 53t27 32q34 26 55 22t61 -37q63 -52 99 -116t36 -121q0 -72 -36 -133.5t-123 -137.5q-96 -85 -103 -111q-10 -32 -79.5 -38t-97.5 20z" />
<glyph unicode="-" d="M21.5 525.5q-0.5 8.5 18.5 27.5q21 24 93 24.5t138.5 -4.5t122.5 15q39 17 86 13t73 -27q30 -30 12 -101q-12 -55 -42 -53q-10 2 -21 11q-24 18 -228 24q-139 4 -177 11t-57 27q-18 24 -18.5 32.5z" />
<glyph unicode="." horiz-adv-x="322" d="M24 48.5q-5 16.5 2 44.5q6 34 48 82.5t85 71.5q23 13 61 8.5t60 -23.5q40 -32 7 -133q-36 -107 -110 -133q-61 -19 -124 42q-24 24 -29 40.5z" />
<glyph unicode="/" horiz-adv-x="988" d="M25 165.5q5 15.5 32 43.5q44 40 44 59q0 16 37 95.5t37 91.5q0 17 31.5 90t42.5 79q4 4 47.5 82.5t61.5 98.5q28 28 28 41q0 10 82.5 109.5t82.5 107.5t50.5 67.5t114 132t81.5 104.5q26 38 40.5 57t31.5 31.5t34 7t39 -23.5q61 -57 -14 -106q-50 -34 -147 -136 t-201.5 -234t-200 -288t-128.5 -274q-12 -41 -21 -63t-12 -26t-7 -18t-8 -43q-10 -58 -42 -127t-54 -78q-28 -10 -50.5 10t-30.5 62q-6 32 -1 47.5z" />
<glyph unicode="0" horiz-adv-x="1375" d="M26 -6.5q18 46.5 109 135.5q114 109 114 124q0 11 -19 38t-40 60t-36 102.5t-9 156.5q4 61 20 110.5t61 138.5q64 133 124.5 216t176.5 201q144 145 225 181.5t113 -34.5q17 -36 42 -26q19 6 46.5 -18.5t48.5 -66.5q21 -40 41 -35t50 62q107 197 149 243q51 55 93 14 q36 -36 13 -82q-10 -18 -30 -31q-32 -18 -98 -125.5t-81 -117.5q-24 -18 -24 -33t-28 -58q-21 -29 -22.5 -54.5t8.5 -120.5q32 -238 2.5 -366.5t-133.5 -217.5q-103 -84 -213.5 -125t-184 -42.5t-138 -3.5t-86.5 -18q-42 -32 -79.5 -89t-37.5 -88q0 -43 -56 -82t-92 -20 q-47 25 -29 71.5zM239.5 624q-1.5 -32 9.5 -99q19 -101 31 -126q19 -36 55 -24.5t80 68.5q26 32 194 224t206 249q103 154 131 213q8 18 -29 101.5t-67 83.5q-30 -2 -76 -34t-63 -65q-51 -92 -105 -42q-21 19 -33 14.5t-50 -48.5q-80 -90 -159.5 -220t-105.5 -214 q-17 -49 -18.5 -81zM453 338q17 -32 173.5 8t196.5 85q28 29 42 28q17 0 56 46t66.5 98.5t30.5 109t-14 225.5q-4 53 -19 58q-7 2 -28 -22t-43 -60q-41 -61 -81 -111t-160 -185q-232 -262 -220 -280z" />
<glyph unicode="1" horiz-adv-x="906" d="M21 125q0 42 36 58t135 16h120l2 59q4 56 22 78q20 26 38 174t6 182q-14 40 -15 156q0 92 -15.5 145t-43.5 47q-17 -2 -21.5 -26t-12.5 -52t-34 -38q-34 -12 -78 9t-55 52q-6 27 23 72.5t49 45.5q19 0 53 48.5t40 84.5q6 40 38 66.5t45.5 22t51.5 -52.5q34 -42 41 -79 t13 -212q9 -238 26 -258.5t10 -32.5q-6 -10 -8 -165.5t4 -220.5q2 -21 4 -30.5t7 -17t14 -7.5t18.5 1t32.5 5.5t45 6.5q76 8 90 20q19 19 76 13t81 -29q28 -28 27.5 -47.5t-32.5 -51.5q-26 -30 -56.5 -33t-84.5 15q-32 11 -48.5 10.5t-44.5 -18.5q-44 -26 -52 -10 q-5 8 -14.5 9t-24 -2t-34.5 -8t-50 -13t-62.5 -16t-80 -15.5t-97.5 -13.5q-116 -12 -150 -3t-34 56z" />
<glyph unicode="2" horiz-adv-x="914" d="M32 163q-36 63 48 121q49 32 240 229q171 171 227.5 267t64.5 230q12 180 -75.5 187t-254.5 -159q-88 -86 -126 -103t-61 21q-13 20 7.5 49t118.5 130q85 87 124 118t64 31q40 1 48 16q9 12 62 13t91 -9q72 -19 95 -186q10 -70 7 -109t-24 -113q-28 -105 -94.5 -198.5 t-226.5 -256.5q-159 -163 -151 -171t50 8q56 21 193.5 32.5t186.5 -0.5q72 -19 155 -64t91 -71q14 -48 -34 -67t-83 23q-24 26 -84.5 48t-72.5 32q-30 24 -193 -3t-254 -71q-44 -21 -83.5 -13.5t-55.5 39.5z" />
<glyph unicode="3" horiz-adv-x="714" d="M25 166.5q-19 44.5 34 80.5q34 21 58 13.5t39 -23.5t15 -24q0 -44 97 -10q63 24 126 67q59 40 88 71.5t58 91.5q42 84 45 113.5t-26 57.5q-18 16 -46 19t-110 -3q-70 -6 -128 -15.5t-81 -16t-42 -6.5t-31 13q-34 28 -19.5 57.5t73.5 49.5q97 34 225.5 146t128.5 162 q0 11 21.5 34t27.5 69q4 51 -30 89q-30 34 -59.5 29t-140.5 -60q-82 -40 -106.5 -63t-28.5 -64q-4 -23 -15 -31.5t-39 -10.5q-30 -2 -42 4t-20 30q-15 38 -5.5 62.5t145.5 113t166 88.5q12 0 43 11.5t59.5 19.5t61 10.5t60 -17.5t46.5 -64q78 -186 -133 -397 q-101 -103 -116 -103.5t-15 -18.5q0 -15 51 -16.5t115.5 -5.5t86.5 -25q30 -28 30 -90t-24 -130.5t-69.5 -137t-101.5 -108.5q-221 -167 -376 -125q-77 19 -96 63.5z" />
<glyph unicode="4" horiz-adv-x="750" d="M22 902.5q4 47.5 28 67.5q15 13 13 94t-21 136q-18 57 -12 86.5t40 42.5q28 10 39.5 6t33.5 -29q19 -21 22.5 -30.5t0.5 -25.5t-6 -52t1 -109l8 -127h111q76 2 98.5 7t36.5 31q36 53 81.5 163.5t51.5 156.5q7 61 47 101q34 39 55 41t50 -29q61 -59 -10 -129 q-20 -21 -101.5 -166.5t-81.5 -163.5q0 -2 29 -10q25 -6 30.5 -23t-10.5 -40t-47 -42q-61 -38 -85 -96l-44 -101q-42 -94 -62 -189t-14 -161q8 -57 4 -78t-30 -51q-32 -38 -58 -31t-51 57q-8 17 -11.5 21t-6 18t1.5 20t11 30t16.5 46.5t26.5 72.5t36 104l75 222q26 68 18 86 q-8 21 -85.5 21t-101.5 -21q-74 -65 -113 -4q-18 30 -14 77.5z" />
<glyph unicode="5" horiz-adv-x="887" d="M21 411q0 32 18 40t48.5 -1t62 -24t65.5 -27.5t51 -12.5q20 0 70 -40q63 -55 156.5 -37t129.5 90q24 46 42 70q17 20 9.5 104.5t-29.5 143.5q-19 46 -74 104.5t-79 58.5q-20 0 -29 -15q-10 -16 -37.5 -13.5t-46.5 24.5q-19 20 -35 101.5t-31 95.5q-21 26 -29.5 78.5 t-0.5 104.5q6 38 22 57.5t67 53.5q46 34 71 41t58 3q98 -18 149 -19.5t100 11.5q44 14 60 12t35 -20q32 -32 22 -72.5t-44.5 -52.5t-76.5 8q-38 26 -158 24t-150 -28q-32 -30 -25.5 -80.5t43.5 -94.5q45 -53 45 -75t34 -30q38 -8 103 -89.5t97 -157.5q51 -125 32 -252.5 t-100 -194.5q-72 -63 -158 -69.5t-257 37.5q-124 30 -177 63.5t-53 79.5z" />
<glyph unicode="6" horiz-adv-x="824" d="M84 431q-128 205 0 455q106 207 212.5 343t196.5 178q36 16 59.5 36.5t29.5 28t18 5.5t37 -22q31 -20 31 -46t-28 -67q-21 -28 -35.5 -34t-41.5 -2q-58 12 -135.5 -62.5t-184.5 -251.5q-63 -103 -88.5 -162.5t-31.5 -120.5q-7 -51 8.5 -133.5t35.5 -94.5q14 -10 6 26 q-10 40 11 59.5t100 49.5q85 32 160 64.5t106.5 47.5t66.5 23t73 6q42 -4 57.5 -13.5t34.5 -45.5t21 -52t-10 -40q-18 -36 -10 -53q10 -18 -65.5 -110.5t-139.5 -134.5q-93 -61 -128 -75t-94 -5q-94 12 -148 52t-124 151zM187 437q11 -26 79 -77q70 -54 130.5 -49t134.5 73 q133 119 168.5 169.5t15.5 88.5q-15 30 -49 26q-72 -4 -180 -57.5t-172 -117.5q-32 -29 -49.5 -37.5t-43.5 -4.5q-44 8 -34 -14z" />
<glyph unicode="7" horiz-adv-x="872" d="M21 1279q0 19 25 50q17 20 29 22.5t34 -7.5q38 -16 252.5 25.5t270.5 75.5q53 34 81 34q38 0 77 -29t52 -64q10 -32 8 -47.5t-21 -38.5q-78 -95 -129.5 -187t-110 -213t-106.5 -208q-105 -185 -105 -310q-2 -63 -18 -80q-14 -21 -50 -19.5t-65 25.5q-26 21 -27 33.5 t18 67.5q14 44 25 65t34 59.5t55 98.5q13 28 96 180t140 291q14 32 27 59.5t23 45.5t18 33t11 22t6.5 14t1.5 12.5t-6.5 10t-12.5 10.5q-6 4 -9 5t-8 4.5t-10 3.5h-11t-18 -2.5t-23.5 -4.5t-31.5 -7t-41 -9.5t-55 -11t-67 -12.5q-203 -40 -233 -61q-65 -44 -103 13 q-23 32 -23 51z" />
<glyph unicode="8" horiz-adv-x="925" d="M27 303.5q-21 42.5 23 97.5q30 38 30 64q0 18 58 97.5t73 79.5q13 0 127.5 112.5t114.5 123.5q0 16 -88.5 72t-165.5 90q-72 30 -88 44.5t-22 56.5q-24 159 185 294q44 30 76 37t112 7q106 0 217.5 -33t157.5 -75q28 -28 50 -82.5t18 -86.5q-6 -40 -58 -109.5 t-111 -116.5q-145 -116 -156 -134q-6 -11 12 -37q26 -36 26 -56.5t30 -58.5q30 -36 32 -126.5t-24 -128.5q-32 -45 -141.5 -98t-256.5 -92q-75 -20 -129 -5q-81 21 -102 63.5zM143 350q19 -46 179 8q175 59 236.5 115t43.5 141q-16 59 -37 99q-16 36 -27 49t-31 10.5 t-42 -18t-71 -56.5q-105 -88 -105 -101t-53 -63q-42 -43 -71.5 -100.5t-21.5 -83.5zM177 1194q0 -34 16 -52.5t43.5 -29.5t84.5 -43.5t116 -83.5l78 -63l55 38q16 8 61.5 45t105.5 102.5t60 101.5q0 38 -36.5 86.5t-66.5 48.5q-26 0 -88 21q-45 14 -55.5 14t-19.5 -18 q-10 -30 -29 -35.5t-76 5.5q-60 12 -106 -1.5t-58 -51.5q-13 -32 -49 -32q-23 0 -29.5 -9t-6.5 -43z" />
<glyph unicode="9" horiz-adv-x="775" d="M23 846q-13 144 64 255q46 70 155.5 156.5t181.5 107.5q63 20 80 19t64 -25q54 -30 94 -36q72 -15 90 -148t-29 -295q-50 -175 -87 -356.5t-28 -217.5q18 -95 17 -119t-23 -50q-28 -30 -48 -33t-50 19q-17 12 -23 35t-1 64.5t13.5 79.5t23 105.5t23.5 119.5 q18 105 28 127q4 12 -20 12q-42 -2 -113 -38q-21 -10 -78 -18t-126.5 -4t-103.5 28q-91 68 -104 212zM141 799q26 -58 66 -76t117 -8q70 8 146 39t98 56q34 42 34 176t-34 174q-5 4 -30 45t-51 57q-18 12 -36 8t-63 -30q-346 -203 -247 -441z" />
<glyph unicode=":" horiz-adv-x="421" d="M21 684q0 21 33 81t67 98q38 46 42 46q25 0 68 -26.5t67 -55.5q42 -55 36.5 -95t-64.5 -92q-38 -34 -62.5 -46t-62.5 -12q-40 -2 -56.5 6.5t-35.5 35.5q-32 42 -32 60zM41 146.5q-3 7.5 0 26.5t16 55q27 68 46 68q12 0 45 30t46 30q10 0 31.5 17t43.5 25.5t73 -6.5 q28 -10 46.5 -53t10.5 -73q-9 -36 -30 -61.5t-99 -88.5q-152 -128 -190 -40q-10 24 -23 43.5t-16 27z" />
<glyph unicode=";" horiz-adv-x="564" d="M21 -192q0 77 104 89q38 4 65 19.5t65 51.5q47 46 55 65.5t2 61.5q-4 38 -25 67.5t-42 42t-32.5 32t-5.5 45.5q10 30 32.5 59.5t42.5 29.5q24 0 62 -47.5t46 -85.5q9 -46 23 -55q32 -20 -4 -137.5t-113 -178.5q-51 -42 -87 -72q-59 -53 -76 -59t-57 13q-54 20 -55 59z M246 752q7 45 70 113q72 74 83.5 73.5t62.5 -20.5q71 -30 80 -83.5t-40 -142.5q-85 -151 -215 -30q-48 45 -41 90z" />
<glyph unicode="&#x3c;" horiz-adv-x="990" d="M21 555q-2 26 17 51.5t80 87.5q91 89 157.5 136.5t233.5 145.5q123 70 123 85q0 8 26 21t52 35t26 56q0 36 45 63q101 61 161 -30q26 -40 27 -54.5t-17 -56.5q-21 -42 -37.5 -50.5t-81.5 -15.5q-56 -4 -95.5 -20.5t-123.5 -72.5q-61 -42 -106.5 -65t-60 -30.5 t-44.5 -31.5t-83 -77l-6 -6q-28 -30 -40 -41.5t-25 -31t-17 -24.5t1 -17.5t11.5 -17t31 -14.5t43.5 -16.5t63 -19.5q6 -2 8 -2q47 -15 98.5 -34t76.5 -27t84.5 -20t151.5 -24q79 -9 105 -56t-14 -107q-24 -36 -42.5 -33.5t-72.5 48.5q-63 51 -212 91q-344 91 -478 120 q-39 8 -50 17.5t-16 37.5z" />
<glyph unicode="=" horiz-adv-x="1085" d="M21 907q0 11 25 47q17 26 50 29.5t184 -0.5q184 -2 377.5 8.5t205.5 23.5q10 8 58.5 5t84.5 -14q19 -6 15 -78q0 -4 -2 -12q-2 -45 -17 -50t-102 12q-16 2 -27 4q-78 12 -243 6t-319 -16.5t-168 -15.5q-26 -4 -74 15t-48 36zM98 493q7 43 51 43q17 0 26.5 4t16.5 9.5 t43.5 10.5t102.5 5q101 0 221.5 13t132.5 26q8 8 101 -13t114 -9q45 30 104.5 -4t53.5 -85q-2 -12 -5 -21.5t-12.5 -17t-15 -10.5t-24 -12.5t-27.5 -13.5q-24 -12 -39.5 -9.5t-21.5 13.5t-25 18t-51 1q-47 -10 -101 12q-59 26 -249 16t-262 -38q-45 -21 -60 -22.5t-41 15.5 q-40 26 -33 69z" />
<glyph unicode="&#x3e;" horiz-adv-x="930" d="M21 1140q2 33 25 52q28 16 42.5 12t56.5 -40q61 -53 130 -85.5t118.5 -47t59.5 -25.5q36 -30 106.5 -55t119.5 -25q52 0 72.5 -1t43 -2t29.5 -9.5t13.5 -17t14.5 -29.5q12 -32 25 -74t26 -54q19 -26 -16 -60.5t-79 -34.5q-71 0 -263.5 -109t-232.5 -172q-26 -36 -61 -36 q-27 0 -62 29.5t-35 52.5q0 21 31.5 43.5t74.5 30.5q72 14 170.5 79.5t130.5 71.5q43 9 75 44t16.5 55t-22.5 46q-4 23 -249.5 144t-287.5 121q-30 0 -52 31.5t-20 64.5z" />
<glyph unicode="?" horiz-adv-x="741" d="M21 946q-2 20 9.5 43t27.5 43.5t53.5 65.5t71.5 88q38 50 107.5 108t140.5 96q105 59 251 -76q26 -23 32.5 -43.5t6.5 -66.5q0 -116 -194 -389q-50 -72 -61 -97.5t-4 -71.5q17 -109 -55 -110q-34 0 -68.5 26t-34.5 52q0 34 54.5 118.5t122 175t80.5 113.5l43 78 q18 36 -2 101.5t-51 73.5q-70 19 -128 -8.5t-147 -126.5q-59 -63 -76 -91.5t-17 -62.5q0 -53 -23 -73t-78 -16q-36 4 -46 13t-15 37zM348 12q0 53 14.5 83t52.5 50q30 15 94.5 15.5t100.5 -17.5q56 -26 48 -79.5t-82 -124.5q-30 -30 -53 -40.5t-56 -10.5q-63 0 -91 28.5 t-28 95.5z" />
<glyph unicode="@" horiz-adv-x="1490" d="M23.5 369q-4.5 82 13.5 132t39 97.5t21 63.5q0 17 31 80t64 114l59 96q34 58 104.5 142.5t144.5 196.5q36 54 223 175q36 23 76 25.5t68.5 -8t57.5 -22.5t41 -12q17 0 80 -28t74 -22q10 8 40 -20q28 -24 96.5 -140t85.5 -166q10 -36 25.5 -61t15.5 -40q0 -20 30 -46 q38 -32 52 -136t-5 -216l-32 -201q-15 -93 -35 -135q-19 -38 -95 -109.5t-110 -84.5q-77 -30 -100 -23t-84 70q-76 78 -104 130l-73 135l-42 -32q-42 -29 -51 -42q-10 -16 -83 -31t-111 -8q-51 10 -114 65q-48 42 -57 64t-11 107q-2 99 18.5 206.5t51.5 158.5q28 46 103 116 q57 52 90 60.5t67 -22.5q19 -16 -8.5 -57t-61.5 -47q-40 -6 -91 -73q-34 -46 -45 -81t-23 -130q-12 -113 -4.5 -150.5t52.5 -86.5q30 -32 70.5 -31.5t77.5 21.5t70.5 50.5t52.5 50.5t21 27q17 26 7.5 91.5t-27.5 125t-35.5 122t-17.5 84.5q0 27 23 56.5t46 29.5 q42 0 93.5 -162.5t47.5 -284.5q-10 -137 -5 -179t56 -114q65 -93 96.5 -111t87.5 12q114 56 165.5 186t44.5 345q-2 105 -14.5 160t-46.5 106q-25 40 -25 52q0 26 -53.5 113.5t-98.5 136.5q-60 68 -120.5 99t-144.5 40q-63 6 -91 0t-87 -40q-86 -49 -105 -75 q-193 -243 -322.5 -443.5t-154.5 -298.5q-14 -61 -9 -170.5t26 -152.5q32 -60 127.5 -147.5t163.5 -117.5q55 -24 107.5 -49.5t79.5 -35.5t60 -20q60 -19 121.5 -46t87 -36.5t61 -5t78.5 33.5q109 74 110 2q0 -21 -17 -39t-59 -42q-72 -47 -127 -47.5t-145 44.5 q-95 48 -189 84t-144.5 54t-67.5 33t-60.5 40.5t-79 48.5t-85.5 83t-89 145q-40 86 -44.5 168z" />
<glyph unicode="A" horiz-adv-x="803" d="M21 190q0 16 16 48t39 91t33 140q19 135 33.5 211.5t26.5 123t25 60.5t30 7q23 -10 21 9q-2 10 -15 25q-4 3 -4 12q0 31 48 133q60 130 78 152q14 18 31 18h7q21 -4 110 -51q109 -57 141 -107t38 -174l9 -135l44 -8q28 -4 37.5 -14t11.5 -35q1 -11 1 -20q0 -32 -15 -55 q-20 -29 -56 -19l-40 8l6 -155q4 -151 34 -197l28 -49l-39 -46q-29 -34 -59.5 -42.5t-43.5 12.5q-6 10 -15.5 233.5t-20.5 232.5q-16 5 -32 0.5t-62.5 -19.5t-78.5 -21q-44 -8 -103 -38t-76 -30q-16 0 -19 -9q-4 -9 0 -39q1 -7 1 -16q0 -27 -8 -67q-14 -72 -14 -111v-6 q0 -38 -22 -88q-24 -54 -44 -54q-21 0 -51.5 33t-30.5 56zM213 620q1 -6 5 -6q5 0 16 8q16 15 169.5 46.5t168.5 50.5q6 9 6 44q0 33 -6 91q-12 118 -30 146q-19 32 -83 59l-62 30l-32 -40q-29 -39 -29 -64q0 -19 -38 -81t-38 -87t-26 -87q-22 -54 -22 -97q0 -6 1 -13z" />
<glyph unicode="B" horiz-adv-x="841" d="M21 1171q4 21 59 44t97 23q32 0 42 12q11 11 75 28t90 20h3q35 0 157 -40q128 -42 150 -58q24 -21 47 -21q20 0 43.5 -25t34.5 -59q2 -5 1 -12q0 -43 -69 -133q-80 -102 -179 -169q-72 -48 -72 -69q0 -7 7 -10q6 -2 14 -2q59 0 152.5 -96.5t93.5 -158.5q0 -76 -105 -214 t-177 -155q-28 -6 -46.5 -17t-32.5 -21t-69 -27t-145 -37q-55 -12 -75 -12h-5q-17 2 -36 26q-26 32 -26 53.5t28 65.5q32 55 40 149q7 76 7 291v109v380l-55 55q-52 54 -49 80zM185 153q0 -31 18 -58q22 -30 54 -30q7 1 13 1q40 6 145 61q49 25 135.5 112.5t111.5 136.5 l30 55l-42 64q-14 28 -42 54.5t-47 36.5q-57 21 -135 21q-2 -1 -4 -1q-80 0 -146 -26q-56 -22 -57 -47q0 -5 2 -10q2 -7 2 -25q0 -49 -18 -182q-20 -133 -20 -163zM211 831q2 -92 8.5 -111.5t29.5 -19.5q32 2 85 30l90 49q65 34 180 140q100 92 100 135q0 6 -2 11 q-4 14 -36 32t-85.5 43t-55.5 27q-29 13 -108 13q-21 0 -43 -1q-114 -4 -131 -23q-18 -20 -27 -112q-6 -63 -6 -141q0 -35 1 -72z" />
<glyph unicode="C" horiz-adv-x="896" d="M29 643q19 78 60.5 138.5t153.5 170.5q82 82 115.5 105t84.5 32q106 20 171 71q18 14 78.5 45t68.5 33q17 0 39 -28q24 -27 36 -62q7 -18 6 -36q0 -16 -6 -32q-12 -34 -53 -44q-24 -6 -42 -15t-25 -13t-22 -4t-40 8q-26 9 -50 9q-15 1 -30 -3q-38 -10 -93 -46l-137 -92 q-179 -117 -193 -254q-1 -13 -1 -25q0 -29 7 -47q10 -26 56 -87q59 -79 143.5 -153t90.5 -82q26 -26 52 -35.5t87 -15.5q30 -3 53 -3q45 0 69 10q33 13 68 14q5 0 9 -1q38 0 52.5 -9t25.5 -31q10 -20 9.5 -45t-9.5 -55q-4 -15 -6.5 -20t-6.5 -15t-6 -11t-12 -5q-8 -3 -12 -3 h-2q-6 1 -22 0h-11q-10 0 -19 1q-13 2 -39.5 3t-49.5 1q-63 4 -63 16t-50.5 28t-90.5 16q-47 2 -115 27q-40 16 -55.5 30t-20 30t-35 63.5t-86.5 111.5q-97 107 -124 169q-16 36 -16 78q0 30 8 62z" />
<glyph unicode="D" horiz-adv-x="982" d="M27 1032q-7 30 -7 55q0 27 8 49q16 43 59 43q27 0 43 16q11 10 26 10q8 0 17 -3q64 -18 124 -18q45 0 87 10q47 10 76 9h14q30 -3 123 -32q133 -42 192 -96q50 -44 111.5 -157t61.5 -163q0 -44 -25 -136t-45 -119q-21 -30 -21 -63q0 -36 -65 -115t-133 -123 q-150 -97 -184 -127q-40 -36 -87.5 -59t-79 -31t-61 -13t-33.5 -7q-6 -2 -13 -2q-19 0 -40 16q-18 16 -24 44q-5 21 -5 84q0 21 1 47q0 119 15 211.5t20 124.5q1 8 1 22q0 45 -12 153q-21 131 -34.5 173.5t-52.5 86.5q-42 48 -57 110zM208 941q-1 -9 -1 -17q0 -13 3 -25 q5 -19 22 -91t32 -166q11 -91 11 -138v-8q-1 -47 -22 -158q-20 -119 -20.5 -145t18.5 -48q25 -26 69 -26q16 0 34 3q70 13 129 68q28 25 98.5 79.5t120 96t49.5 52.5q0 21 30.5 81t51.5 134q10 37 10.5 71t-10.5 66q-20 73 -70 154q-30 48 -58 73.5t-85 57.5 q-108 58 -213 58q-39 0 -78 -8q-49 -10 -59 -21t-40 -76q-19 -44 -22 -67z" />
<glyph unicode="E" horiz-adv-x="1016" d="M21 84q0 19 30.5 62.5t30.5 64.5q0 30 26.5 82.5t38.5 107.5q11 52 24 68q16 23 18.5 54.5t-12.5 44.5q-18 14 -18 36t13 48.5t29 55t31 66.5t15 72q0 48 41 150.5t66 118.5q40 24 199.5 73.5t203.5 51.5q34 1 70 20q24 12 56 12q15 0 31 -2q54 -8 71 -34q10 -17 10 -31 q0 -17 -15 -28q-28 -21 -115 -30q-101 -10 -199 -35t-126 -49q-167 -143 -180 -226q-7 -46 -7 -69q-1 -16 3 -20q8 -12 70 -12q15 1 28 1q50 0 56 -10q4 -7 30 -7q18 0 46 4q70 8 150 30q82 23 150 24h5q64 0 83 -23q16 -15 16 -29q0 -31 -81 -55q-56 -15 -148 -21 q-70 -6 -163.5 -24t-156.5 -30q-47 -9 -71 -9q-8 0 -14 1q-18 6 -31 -7t-34 -64q-33 -74 -49 -152t-21.5 -133t-11.5 -71q0 -9 -1 -14.5t11.5 -9.5t32.5 -6t56 -6q109 -9 166 -10q10 0 18 1q56 2 105 17q54 15 100 15h15q52 -3 69 -27q20 -28 14 -42t-54 -47 q-41 -26 -65 -31t-38 3t-46 15q-16 4 -36.5 3.5t-44.5 -3.5q-49 -7 -199.5 -16t-199.5 -9q-32 0 -61.5 30.5t-29.5 59.5z" />
<glyph unicode="F" horiz-adv-x="847" d="M21 112v5q0 56 36 128q32 59 40 251t17 227q6 21 6 68t-6 119q-11 145 -27 177q-11 20 -9 37t21 55q26 51 54 58q5 1 12 1q26 0 69 -23q28 -13 49 -13h1q21 0 72 15q57 17 107 35t96 30q38 11 60.5 24.5t25.5 21.5t24 12q8 2 19 1q16 0 38 -4q65 -8 81 -22.5t1 -50.5 q-17 -36 -104.5 -48t-101.5 -22q-15 -13 -152.5 -50t-185.5 -71q-32 -20 -38.5 -40.5t-5.5 -94.5q0 -103 12 -109q4 -5 95 -11q59 -4 127 -4q37 0 76 2q112 4 149 23q36 20 66 20q36 0 63 -28q22 -21 22 -39q0 -12 -9 -22q-17 -18 -155.5 -40.5t-252.5 -22.5 q-50 -2 -84.5 -5.5t-48.5 -6.5t-32 -9.5t-24 -8.5q-13 -4 -16 -28.5t-5 -113t-9 -159.5q-3 -38 -3 -70q0 -70 14 -107q8 -27 8 -52q0 -27 -9 -54q-17 -51 -61 -74q-28 -16 -42 -16h-1q-13 1 -37 21q-40 30 -42 88z" />
<glyph unicode="G" horiz-adv-x="881" d="M22 460q2 86 33 211q68 274 119.5 370t177.5 147q57 20 119.5 56t117.5 54t154 29h2q23 0 58 -38q25 -27 25 -46q0 -26 -43 -37q-34 -8 -97 -12q-74 -4 -117.5 -17t-111.5 -46q-80 -40 -125 -70t-73.5 -67.5t-41 -66.5t-34.5 -96q-6 -16 -8 -26q-28 -82 -35 -134.5 t-7 -153.5q0 -116 5 -143.5t33 -49.5q32 -25 94 -43.5t96 -35.5q42 -24 139 -24q72 0 93 7.5t59 47.5q51 55 69 91t18 86q0 95 -59 127q-9 4 -18 4q-20 0 -42 -20q-32 -30 -32 -75q0 -40 -35.5 -59t-59.5 -7t-58 62q-32 47 -32 87q0 10 2 20q6 36 41 65q25 21 46 21 q8 0 15 -3q16 -4 43.5 25.5t101.5 29.5q28 0 38 -1t22 -3.5t20.5 -17t16.5 -26t26 -48.5t38 -69q46 -84 46 -124q0 -21 -2.5 -27.5t-7.5 -13t-23 -35.5t-41 -74q-38 -78 -84.5 -126.5t-82.5 -48.5q-24 0 -46.5 -9.5t-33.5 -11.5h-3q-13 0 -46 12q-42 21 -109 32 q-127 21 -213.5 54t-86.5 62q0 11 -16 33t-32 54q-13 27 -13 95q0 10 1 23z" />
<glyph unicode="H" horiz-adv-x="952" d="M22 218q-3 28 -2 52q0 53 12 93q12 38 43.5 187.5t105.5 434.5q28 99 33 184t8 116t23 44q23 13 41 13q23 0 38 -20q18 -24 18 -63q0 -22 -6 -50q-8 -36 -20 -102.5t-23 -108.5t-23 -76q-15 -44 -15 -64q0 -8 3 -12q6 -9 33 -10t36 8q6 6 42 9t125.5 8t169.5 12 q47 5 67 7t43 13.5t28.5 20t11 42.5t4.5 62t-6 93q-5 78 -5 118q-1 19 1 29q4 30 25 54q29 31 44 31h1q14 -1 38 -37q15 -26 15 -47q0 -19 -9 -57q-15 -65 -15 -186.5t15 -156.5q10 -21 10 -35q0 -3 -1 -6q-3 -15 -24 -43q-44 -61 -95 -408q-8 -55 -8 -95q0 -48 11 -76 q9 -26 9 -44t-9 -29q-18 -22 -83 -26q-40 -2 -49.5 4t-14.5 36q-2 32 28 146t30 143q0 45 21 103q20 61 29 153q3 35 3 58q0 38 -9 45q-4 2 -23 2q-45 0 -181 -10q-192 -14 -288 -28q-4 -2 -10 -2q-42 -6 -51.5 -20t-22.5 -85q-21 -113 -47 -209l-38 -155l34 -33 q27 -28 27 -60q0 -27 -19 -56q-26 -39 -57 -39q-9 0 -18 3q-10 4 -19 12q-27 27 -35 113z" />
<glyph unicode="I" horiz-adv-x="982" d="M21 93q0 21 36 54q23 21 35.5 25.5t28.5 -5.5q10 -7 39 -7q28 0 72 6q92 12 146 37q19 8 48 16.5t35 11.5t17 30.5t15 68.5t11 129q2 38 12.5 133.5t18 167t11.5 188.5q2 39 2 73q0 69 -6 120q-2 20 -2 37q0 33 8 50q8 20 -8 20h-10q-18 0 -57 -4q-57 -6 -131 -24 t-118.5 -29.5t-52.5 -4.5q-19 10 -16.5 53t20.5 59q12 10 25 7t53 9q57 24 298.5 37.5t300.5 45.5q36 18 46 19h1q10 0 33 -13q24 -13 29 -49q1 -8 1 -15q0 -24 -14 -33q-15 -8 -16 -38q0 -32 -24 -38t-58 16q-24 14 -48 18q-9 1 -23 2q-23 0 -58 -4q-90 -12 -90 -30 q0 -5 6 -10q4 -2 7 -5q10 -5 10 -91q0 -48 -3 -123q-9 -206 -35 -371q-12 -90 -19 -242l-7 -154l92 9q37 4 59 3q15 0 24 -1q22 -4 43 -26q32 -30 32 -64q0 -5 -1 -10q-4 -38 -38 -36.5t-99 15.5q-24 5 -53 4q-50 0 -115 -14q-57 -12 -112 -16.5t-182 -36.5 q-104 -27 -132 -29h-7q-24 0 -46 14q-34 24 -34 45z" />
<glyph unicode="J" horiz-adv-x="910" d="M22 278q6 34 37 54q22 14 46 14q10 0 21 -3q35 -9 102 -54q53 -36 108 -36h6q57 2 141 47q89 44 113 94q18 37 18 110q0 24 -2 53q-21 272 -39 377.5t-52 170.5q-20 40 -20.5 68.5t-19.5 56.5q-12 18 -23 18t-40 -14q-18 -8 -40 -25t-36.5 -29.5t-30 -22.5t-31.5 -7.5 t-31 17.5q-20 20 -20 40q0 19 17 37q35 40 138 76q76 28 194 34q59 4 108 4t88 -4q78 -6 89 -12q27 -14 27 -43v-11q-6 -38 -46 -68q-43 -37 -67 -38t-36 33q-21 53 -91 53q-34 0 -34 -26q0 -27 44 -284q26 -133 47 -272q6 -38 6 -97q0 -47 -4 -108q-4 -101 -12.5 -125 t-46.5 -58q-44 -38 -120.5 -70t-82.5 -36q-14 -11 -91 -29q-49 -14 -69 -14q-2 0 -4 1q-19 1 -51 25q-40 30 -109.5 35t-82.5 16q-19 14 -19 39q0 6 1 13z" />
<glyph unicode="K" horiz-adv-x="1014" d="M21 145q0 56 15 70q6 9 16.5 54t23.5 112.5t17 87.5q34 143 52 247t26 164q6 43 6 83q0 15 -1 29q-3 52 -7 71.5t-18 58t-20 57.5q-13 43 -11.5 62t13.5 39q18 28 47 32q4 1 8 1q23 0 38 -20q28 -32 38 -208q4 -70 4 -127q0 -87 -10 -146q-97 -513 -97 -563q2 -40 24 -55 q29 -20 29 -48q0 -6 -1 -10q-6 -34 -48 -68q-52 -42 -86 -42q-28 0 -43 29q-15 28 -15 90zM272 704q4 42 46 61q30 17 71.5 50t71.5 56t39 23q34 0 350 253q62 53 74 57q3 1 7 2q11 0 31 -12q24 -13 30 -29q2 -6 2 -12q0 -10 -6 -21q-10 -17 -26 -35.5t-42 -39.5t-49 -40 t-47.5 -41t-38.5 -40q-21 -28 -42.5 -35t-35 -0.5t-29.5 5.5t-28 -18q-19 -24 -40 -23q-11 0 -17.5 -5.5t-11.5 -15t-25 -26.5t-52 -35q-65 -40 -65 -49q0 -10 112.5 -118.5t121.5 -108.5q8 0 82 -64q53 -44 137 -160t84 -144q0 -21 -29 -44t-61 -27h-3q-27 0 -41 28 q-16 30 -37 132q-12 54 -190 210.5t-229 156.5q-52 -1 -85 33q-29 30 -29 67v9z" />
<glyph unicode="L" horiz-adv-x="864" d="M21 8q0 87 47.5 276t99 357.5t53.5 185.5q5 17 24 87q19 68 31 130q8 41 8 64q0 11 -2 17q-6 12 14 45.5t53 47.5q9 4 18 4q26 0 57 -30q30 -32 30 -55q0 -25 -41 -66q-42 -46 -110.5 -295t-93.5 -297q-18 -38 -50 -195q-24 -120 -24 -157q0 -12 2 -15q6 -10 77 -10 q54 0 144 6q210 14 284 37l88 32l57 -40q56 -39 56 -72q0 -21 -22 -39q-10 -8 -37.5 -8t-70.5 8q-35 8 -87 8q-16 0 -34 -1q-76 -3 -147.5 -11t-144 -20t-109.5 -20t-44 -8q-77 -19 -101 -19q-5 1 -8 1q-17 4 -17 52z" />
<glyph unicode="M" horiz-adv-x="896" d="M21 97q-1 7 9 24q10 18 19.5 33t26.5 69.5t31 134.5q21 117 47.5 220.5t41.5 156t15 77.5t24.5 125.5t26.5 131.5q4 53 30 88t68 41q30 4 41.5 -2t20.5 -29q7 -19 7 -52q-1 -9 -1 -19v-10q0 -45 21 -118q30 -92 30 -131q0 -29 12 -29q24 0 38 57q9 40 32 81t31 69 q6 23 52 95.5t46 93.5q0 59 67 78q27 7 44 7q11 0 18 -3q15 -4 21 -40q4 -23 4 -49q0 -16 -2 -33q-3 -6 -9 -452t-16 -511q-4 -28 -4 -46q0 -12 2 -19q4 -18 24 -43l37 -36l-51 -53q-49 -51 -82 -51q-24 0 -38 28q-15 30 -15 73t17 60q16 18 30 454q6 197 6 308 q0 135 -9 145q-10 8 -27 -2.5t-34 -33.5t-23 -51q-4 -18 -42 -117.5t-38 -145.5q0 -37 -37 -86t-62 -49q-38 0 -60.5 97t-35 194t-29.5 97q-6 0 -14 -25.5t-20 -87.5t-28 -111q-12 -46 -24.5 -108.5t-22 -102.5t-24.5 -65q-23 -46 -23 -232q-3 -167 -15 -188q-6 -8 -28 -20 q-25 -15 -48 -15q-17 0 -31 8q-34 19 -42 73q-5 44 -5 47z" />
<glyph unicode="N" horiz-adv-x="997" d="M21 53q-1 6 -1 12q0 41 30 80q24 32 33.5 35t34.5 -13q55 -36 54 -88q0 -19 -7 -41q-11 -30 -23 -35q-8 -4 -31 -4q-10 0 -22 1q-45 4 -54 11.5t-14 41.5zM84 226q-2 16 -2 29q0 15 2 26q4 21 16 82t16 106q5 40 23 105.5t28 170.5t29 186t25 172q5 70 12 96.5t27 42.5 q27 24 39.5 25t38.5 -17q16 -14 27 -66.5t22.5 -124.5t25.5 -111q19 -49 59.5 -194.5t61.5 -246.5q10 -49 19.5 -66t26.5 -17q34 0 61 113t61 292t65 272q19 48 20.5 81t-1.5 37.5t11 26.5q13 15 8.5 32t15.5 36q21 24 57 28q6 1 12 1q29 0 58 -16q14 -9 24 -37q7 -20 7 -40 q1 -6 -1 -14q-4 -26 -18 -27q-19 0 -66.5 -56t-43.5 -70q6 -15 -16 -39.5t-22 -49.5q0 -19 -14.5 -48.5t-22.5 -110.5q-7 -65 -17.5 -119t-14.5 -61t0 -29q6 -8 -2.5 -34.5t-21 -63t-12.5 -66.5q0 -31 -15 -53.5t-15 -104.5q0 -70 -7.5 -89t-47.5 -52q-38 -32 -52 -35h-4 q-12 0 -26 13q-55 49 -87 260q-28 181 -51.5 275t-69.5 200q-30 67 -56 80q-4 2 -4 -2t4 -20q6 -8 5 -16.5t-5 -11.5t-9 -28.5t-7 -67.5q-2 -77 -33 -126.5t-33 -124.5q-2 -82 -25 -82q-17 0 -7 -14q8 -14 20 -38q3 -6 3 -13q0 -20 -24 -47q-21 -21 -16.5 -37t12.5 -31 t-26 -54q-13 -14 -19.5 -22t-11.5 -9t-8 2t-8 12z" />
<glyph unicode="O" horiz-adv-x="923" d="M24 574q2 97 9 144t28 90q34 70 34 78q0 14 57.5 93t85.5 99q24 17 48 37t38 32.5t30.5 26.5t25 18t22.5 7q4 1 8 1q7 0 10 -4q42 -21 268 -69q30 -6 99 -78.5t69 -96.5q0 -17 16 -34.5t10 -46.5q-9 -36 6 -44q13 -8 14 -20q0 -18 -22 -18q-21 0 -21 -21t21 -38 q18 -14 18 -84t-18 -83q-9 -6 -13 -21t-10.5 -53t-19.5 -80q-20 -74 -86.5 -142t-148.5 -107q-80 -39 -168 -53q-24 -4 -48 -4q-59 0 -106 26q-101 50 -132.5 71t-58.5 53q-43 51 -57 117q-10 49 -9 135q0 32 1 69zM116 595q-2 -39 -2 -72q0 -109 24 -159q32 -66 158 -134 q46 -26 72 -31q11 -2 25 -2q20 0 46 4q120 14 226.5 111t133.5 215q13 60 13 158q0 35 -2 74q-7 105 -14 137t-39 70q-65 83 -165 105q-39 9 -78 9q-60 0 -114 -21q-90 -34 -145 -107q-82 -109 -106 -171t-33 -186z" />
<glyph unicode="P" horiz-adv-x="787" d="M27 1180q9 28 47 29q19 0 20 5.5t-10 23.5q-7 13 -7 25q-1 21 23 41q36 30 111 40q82 12 112 11q3 1 6 1q27 -2 34 -12q11 -15 70 -15q48 0 87 -17t60.5 -35.5t46.5 -35.5t46 -17q36 0 64 -70t29 -146v-6q0 -72 -23 -120l-57 -87q-26 -38 -92.5 -89.5t-86.5 -73.5 q-28 -27 -47 -27.5t-61.5 -0.5t-100.5 -22q-80 -31 -109 -31h-2q-20 0 -22 -22q0 -6 -1 -17q0 -33 5 -115q10 -152 27 -201q8 -26 8 -51t-8 -49q-16 -48 -55 -66q-25 -13 -37 -13h-3q-12 2 -31 21q-34 34 -42 90q-2 13 -1 25q0 40 19 68q7 11 9 14t7.5 10.5t5.5 15t2 17 t2 26v33.5t-1 49t-1 62.5t-1 82t-1 101.5q-2 150 -5.5 222t-6.5 91t-11.5 51.5t-16.5 76.5q-5 42 -5 69q0 24 4 38zM123 1190q0 -4 4 -32t7 -47.5t9 -71.5t14 -113q23 -219 28 -236q5 -9 12 -9h1q8 1 26.5 9t36 16.5t43 14t46.5 0.5q10 -2 20 -2q28 0 46 17q26 23 55 22 q32 0 73.5 57.5t65.5 74.5q26 16 38 68q7 28 7 54q0 21 -5 41q-10 42 -56 81t-104 64q-58 26 -118 42q-50 13 -91 13h-15q-46 -3 -55 -21q-16 -30 -82 -36q-6 -2 -6 -6z" />
<glyph unicode="Q" horiz-adv-x="1062" d="M21 656v9q0 142 154 345q51 68 152 151t152 101q34 10 42 29t13.5 41t24.5 37q24 18 38 19q36 0 142.5 -104.5t106.5 -138.5q0 -18 30.5 -63.5t67.5 -94.5t67.5 -118.5t30.5 -129.5q0 -91 -61 -166.5t-211 -173.5q-14 -9 -18.5 -14t-7.5 -11.5t2 -19t10 -29.5t17 -52 t20 -74q19 -74 19 -91t-23 -38q-23 -24 -42 -24q-37 0 -59 91q-6 24 -15 74q-15 91 -27 95q-10 4 -49.5 -12t-106 -40t-125.5 -35q-60 -10 -85 -10q-6 0 -10 1q-21 3 -65 30q-82 55 -130.5 165t-53.5 251zM125 668v-19q0 -71 25 -155q29 -95 97 -144l63 -44l72 26 q73 25 88 25l0.5 -0.5l0.5 -0.5q15 0 69 24l52 23l-29 38q-27 36 -29 75q-1 4 -1 8q0 33 19 53q22 22 58 9q18 -4 35 -32.5t28 -52.5t15 -24q19 0 71.5 38t107.5 91q57 56 71 79.5t14 67.5q0 133 -142 257q-82 73 -82 89t-32 39.5t-75 36.5q-15 5 -31 5q-29 0 -59 -16 q-20 -10 -74 -35q-60 -30 -150 -113.5t-111 -131.5q-26 -57 -49 -101q-18 -36 -22 -115z" />
<glyph unicode="R" horiz-adv-x="862" d="M42 1125q28 36 85 44q25 2 96 27.5t127.5 47.5t58.5 24q1 1 3 1q12 -1 68 -27q66 -32 117 -65q53 -36 72 -59t29 -61q12 -41 12 -71q0 -14 -3 -26q-11 -44 -122.5 -163.5t-158.5 -138.5q-25 -8 -40 -20t-13 -16q4 -12 45 -30t90 -40.5t102.5 -80.5t81.5 -137 q30 -87 75 -115q43 -25 62 -64q13 -26 13 -54q0 -13 -4 -27q-10 -42 -26.5 -59t-48.5 -17q-44 0 -68 22t-30.5 51.5t-19.5 82.5t-29 91q-21 44 -30 84q-6 36 -46 76t-91 64q-49 23 -117 31q-24 3 -41 3q-33 0 -44 -10q-18 -16 -19 -219q1 -38 1 -69q-1 -84 -5 -110 q-6 -36 -28 -61q-37 -39 -67 -39q-20 0 -36 17q-23 25 -23 64q0 33 17 75l12 26q24 43 30 91q5 36 5 96q0 20 -1 43q-2 44 -8.5 59t-23.5 21q-36 9 -41 47q-1 5 -1 10q0 31 28 51q23 17 26 37q1 5 1 14q0 26 -7 84q-6 70 -16.5 113t-28.5 89t-28 87q-12 40 -12 59 q0 20 20 47zM192 924v-33q0 -83 8 -139q10 -66 30 -66q36 0 124.5 52.5t149.5 111.5q56 54 73.5 80t17.5 57q0 30 -10.5 49t-42.5 42q-56 44 -106 60q-39 12 -61 13q-6 1 -11 -1q-22 -4 -28 -11q-8 -8 -66 -28q-49 -16 -62.5 -49t-15.5 -138z" />
<glyph unicode="S" horiz-adv-x="872" d="M21 1063.5q0 21.5 17 39.5q53 57 270 129q101 34 244.5 34t181.5 -34q30 -28 28.5 -46.5t-36.5 -52.5l-36 -34l-44 42q-34 32 -55 36q-8 2 -27 2q-28 0 -79 -4q-129 -10 -216.5 -48t-121.5 -100q-5 -9 -5 -23q0 -44 52 -132q66 -115 133 -161q90 -59 175 -63 q92 -4 174.5 -59t138.5 -148q37 -66 37 -128q0 -27 -8 -55q-25 -86 -125 -135q-74 -36 -265.5 -36t-221.5 -24q-25 -17 -47 -17q-9 0 -17 2q-30 9 -46.5 46t-15.5 58t21 47q12 18 28 19q1 0 3 1q18 0 70 -12q80 -19 101 -28q33 -13 92 -13q49 0 115 9q148 19 185 55 q36 33 36 73q0 38 -31 83q-95 137 -224 156q-146 20 -208 56t-143 147q-78 103 -107 217q-23 80 -23 101.5z" />
<glyph unicode="T" horiz-adv-x="1087" d="M21 1190q0 48 33 63t155 21q147 10 294 38t244 40q38 5 78 20.5t68.5 32t55.5 29.5q25 12 48 12h3q24 -1 46 -23q21 -20 21 -43t-21 -74q-16 -44 -48 -52q-6 -2 -13 -2q-26 0 -55 26q-18 17 -40.5 15t-108.5 -27q-89 -28 -107 -39.5t-18 -43.5q0 -25 -4 -38.5t-12 -24.5 t-17 -57t-17 -125q-15 -156 -38 -282l-34 -207q-7 -27 -7 -52q1 -21 5 -41q7 -28 6 -71q0 -25 -2 -55q-7 -65 -15 -91.5t-32 -47.5q-25 -24 -47 -24q-10 0 -18 5q-18 10 -24 35.5t-6 103.5q0 63 3.5 90.5t8.5 38t16 59t23 128.5q14 91 27 160.5t17 93.5t9.5 61.5t8.5 95.5 q8 113 16 137q1 3 1 7q0 20 -23 68q-28 58 -44 59q-36 0 -144 -26.5t-110 -37.5q-6 -16 -34 -44t-40 -28q-15 0 -61.5 50t-46.5 67z" />
<glyph unicode="U" horiz-adv-x="952" d="M22 638q-2 63 -2 116q0 150 18 227q3 16 3 30q0 26 -11 40q-8 10 -8 26q0 19 13 49q24 52 43 53q36 0 66 -57q17 -33 17 -55q0 -17 -10 -27q-23 -28 -33 -213q-4 -73 -5 -139q0 -100 10 -181q16 -171 78.5 -250.5t180.5 -79.5q53 0 76 7.5t60 37t77 52.5q26 14 40.5 30 t17.5 26t10.5 19t22.5 14q36 10 129 196q37 72 37 159q0 64 -10.5 96t-48.5 95q-61 97 -61 116t38 44q28 17 37.5 17.5t29.5 -19.5q24 -21 39.5 -80t19.5 -69q10 -28 27 -140q8 -54 8 -90q0 -38 -9 -56q-10 -10 -11.5 -52t-32.5 -87q-36 -54 -68 -109q-34 -56 -146.5 -157.5 t-170.5 -129.5q-65 -29 -133 -29h-6q-72 2 -122 33q-51 32 -103.5 96.5t-67.5 114.5q-31 86 -39 326z" />
<glyph unicode="V" horiz-adv-x="1037" d="M24 1116q6 31 41 42q15 3 27 3q31 1 43 -21q16 -30 19 -157q5 -137 40.5 -286t52.5 -298q5 -75 27 -86q4 -2 10 -2q21 0 56 35l80 85q26 25 42.5 48t21.5 33.5t11.5 17t19.5 6.5q23 1 23 19q0 26 82 123t82 117q0 15 6.5 18.5t25.5 -1.5q19 -7 23 -3.5t2 20.5 q-4 19 36 106.5t47 144.5q8 59 29 95q15 26 45 26q11 0 24 -3q32 -6 54.5 -22t22.5 -31q0 -16 -61.5 -101.5t-77.5 -91.5q-15 -6 -32 -36t-41 -73.5t-48 -70.5t-94.5 -125.5t-114.5 -151.5q-57 -64 -57 -82q0 -10 -21 -37.5t-56.5 -79t-59.5 -106.5q-32 -72 -62 -90 q-13 -8 -31 -8q-21 0 -48 13q-32 12 -38 37t-14 140q-9 141 -23.5 188t-16.5 89q-3 85 -85 441q-14 64 -14 97q0 11 2 19z" />
<glyph unicode="W" horiz-adv-x="1157" d="M21 1202l53 -6q55 -6 73 -24t7 -59q-9 -39 -9 -129q-1 -34 1 -74q4 -149 25 -248q24 -120 38 -200q6 -46 21 -78t31.5 -41t36.5 3q30 24 120.5 224t106.5 297q9 55 19.5 76t35.5 33q40 21 54 11q24 -15 36 -45t1 -50q-18 -31 -18 -110q0 -44 6 -106q16 -168 52 -229 l23 -36l36 44q28 34 35 58.5t24 37.5q23 18 23 60q0 30 7.5 53.5t18 36t20.5 6.5q6 -5 11 10q3 9 3 19q0 30 22 78.5t22 75.5q0 34 14 40q16 10 26 82q8 52 7 109q0 21 -1 43q-1 18 -1 33q0 37 4 53q5 22 22 30q26 16 42 16h2q16 -1 38 -22q27 -25 27 -75v-11 q-3 -58 -37 -91q-36 -38 -32 -38t-5 -24.5t-20 -62.5t-11 -60q0 -34 -23 -61.5t-23 -61.5q0 -19 -8.5 -38t-19.5 -25.5t-23 0.5q-6 6 -6 -2.5t4 -27.5q1 -7 1 -14q0 -26 -17 -50q-22 -30 -26 -69q-2 -36 -20 -80t-18 -72q0 -26 -33.5 -62.5t-84.5 -64.5q-15 -9 -30 -9 q-36 0 -70 52q-14 18 -30 105t-29.5 163t-19.5 76q-10 -3 -55 -97.5t-74 -179.5q-40 -114 -108 -186q-55 -58 -102 -57q-11 0 -22 3q-24 7 -39.5 58.5t-29 145t-20.5 119.5q-30 131 -54.5 332t-26.5 326z" />
<glyph unicode="X" horiz-adv-x="963" d="M27 1142q-6 14 -6 27q0 21 17 40q23 26 45 26q24 0 46 -33q16 -26 81.5 -69.5t135 -102t103.5 -125.5q32 -62 68 -108q28 -32 36 -34t21 18l60 97q30 44 90.5 118.5t70.5 98.5q17 37 54 53q18 8 34 8q17 0 31 -9q30 -14 30 -62q0 -7 -1 -15q-5 -62 -38 -68 q-50 -10 -122 -87.5t-120.5 -152t-48.5 -91.5q0 -15 31.5 -75t42.5 -69q10 -6 24 -45t53.5 -110.5t112.5 -147.5q48 -51 58 -81q9 -28 -16.5 -56t-67.5 -39q-6 -1 -12 -1q-34 1 -67 39q-39 46 -39 99q0 41 -42 120t-48 96q-19 52 -58 118l-38 65l-27 -36 q-203 -262 -253 -358l-30 -59l30 -38q22 -26 22 -47q0 -10 -5 -18q-15 -28 -81 -60q-53 -26 -79 -27q-6 0 -11 2q-22 8 -22 48v10q3 49 29 94q14 20 34 57.5t72.5 122.5t158.5 242q93 139 93 156q0 16 -60.5 109.5t-98.5 133.5q-40 44 -110.5 96.5t-114.5 72.5 q-51 20 -68 57z" />
<glyph unicode="Y" horiz-adv-x="1041" d="M24 1179q-3 9 -3 18q0 24 19 49q13 19 23.5 19.5t39.5 -11.5q26 -13 45 -38.5t44 -66t51 -69.5q15 -20 69.5 -96.5t109.5 -131.5l63 -65l34 32q24 20 40.5 23.5t32.5 17t45 68.5q36 63 107 139t91 123q30 64 68 78q37 14 62 14q56 0 56 -67q0 -34 -58 -95t-87 -61 q-45 0 -109.5 -93t-98.5 -207q-16 -52 -48 -93.5t-40 -95.5q-8 -81 -23 -152.5t-24.5 -107.5t-18.5 -80q-9 -39 -9 -61q0 -4 1 -7q1 -23 9 -67q8 -32 8 -53q0 -25 -10 -36q-18 -20 -58 -28q-13 -3 -24 -3q-22 0 -34 11q-17 12 -18 62.5t13 58.5q7 6 13 29t18 77.5t22 98.5 q24 93 39 190q12 73 12 108q0 11 -1 18q-4 32 -64 66q-53 30 -103 93t-112 152.5t-125 153.5q-57 54 -67 86z" />
<glyph unicode="Z" horiz-adv-x="914" d="M23 226q3 42 25 72q77 99 117 169.5t63 107.5t82 93q78 76 78 86q0 6 -48 -8q-44 -14 -95 -30t-66 -16q-26 0 -40 34q-8 18 -8 35q0 15 6 28q10 21 34.5 29t110.5 13q68 7 105 14.5t44.5 12.5t19 9.5t32.5 4.5q34 0 66.5 31t90.5 120q52 85 52 110q0 19 -41 20 q-15 0 -37 -3q-51 -6 -166.5 -12.5t-191 -14.5t-93.5 -22q-32 -22 -60 -22q-15 0 -28 6q-39 18 -39 76q0 57 46 89q22 15 42 15q22 0 41 -19q14 -15 211.5 -15t260.5 17q40 10 62 23.5t25.5 23t9.5 15.5q4 3 9 3q4 -1 9 -3q11 -4 45 -20q38 -21 50 -35.5t12 -45.5 q0 -50 -24 -70q-23 -18 -74.5 -106.5t-51.5 -110.5q0 -24 22 -32t22 -49t-23 -60q-12 -10 -33 -10q-18 0 -43 8q-22 8 -40 8q-21 0 -37 -10q-31 -18 -140 -123q-81 -78 -169 -200q-76 -104 -76 -131q0 -5 2 -7t12 -2q28 0 118.5 13t119.5 13q10 0 13 -2q17 -4 16.5 0 t35 15.5t93.5 16.5q82 6 121.5 30.5t67.5 26.5q26 2 39.5 -7.5t32.5 -39.5l31 -50l-35 -30q-33 -26 -67 -26q-25 0 -51 14q-8 4 -27 4q-34 0 -102 -11q-97 -15 -112 -15h-3q-3 2 -10 2q-31 0 -145 -34q-141 -42 -163 -65q-28 -26 -74 -30q-7 -1 -14 -1q-36 0 -53 19 q-15 15 -15 49v12z" />
<glyph unicode="[" horiz-adv-x="837" d="M21 313q5 166 34 402q44 344 57 485.5t13 288.5l2 198h265q161 0 212.5 -4t51.5 -16q0 -65 -114 -43q-63 15 -141.5 8.5t-94.5 -24.5q-8 -8 -26 -20t-29 -25t-19 -63.5t-8 -138.5q0 -70 -24.5 -253.5t-46.5 -349.5t-23 -323t37 -203q24 -30 58.5 -38.5t171.5 -18.5 q130 -12 171.5 -11t73.5 17q48 24 97.5 25t68.5 -23q12 -16 6 -29t-42 -47q-52 -50 -116 -53.5t-223 11.5q-144 6 -257 24t-134 38q-26 20 -21 186z" />
<glyph unicode="\" horiz-adv-x="727" d="M24.5 1403.5q3.5 15.5 13.5 26.5t25 14t32 1q32 -4 66.5 -60t37.5 -105q2 -54 129 -322t134 -296t20 -57t50.5 -96.5t66.5 -130.5l80 -159q38 -76 23.5 -109.5t-76.5 -16.5q-40 10 -83 100.5t-34 110.5q4 12 -20 72.5t-63.5 144t-54.5 121.5q-19 50 -82 185l-124 270 q-60 133 -102 198q-26 36 -34 64.5t-4.5 44z" />
<glyph unicode="]" horiz-adv-x="743" d="M23 1628q-5 34 9 51q12 12 244.5 -10t278.5 -45q32 -16 55.5 -16t40.5 -3.5t43 -28.5q28 -28 30 -45t-13 -86q-19 -88 -26.5 -356t-5.5 -882q0 -48 -15.5 -71.5t-53.5 -29t-81.5 -2.5t-117 -1t-141.5 -21l-103 -23l-44 42q-41 38 -34.5 69t58.5 60q40 20 51 19.5 t38 -25.5q46 -45 125.5 -32t138.5 72q2 2 7 6q40 40 48 86q15 72 27 560v62l13 465l-42 25q-32 20 -98.5 35.5t-108.5 36.5q-50 24 -165.5 30t-132.5 16q-20 8 -25 42z" />
<glyph unicode="^" horiz-adv-x="821" d="M21 844q-2 32 7.5 46.5t39.5 33.5q42 26 74.5 98.5t43 123t10.5 60.5q0 28 26.5 89.5t22.5 75.5t25.5 48t69.5 46t80 -34q13 -17 43 -49t62 -73t61 -100q30 -56 72 -112.5t72.5 -89.5t52.5 -66.5t19 -64t-37 -61.5l-44 -45l-55 25q-32 15 -44 27.5t-22 38t-16 37.5 q-14 28 -6 56q8 32 -18 82.5t-115 169.5q-42 57 -53.5 64.5t-33.5 -10.5q-27 -26 -26 -51q0 -18 -24 -46t-34 -56l-55 -143q-40 -101 -32 -114q13 -19 -15.5 -61t-59.5 -50q-38 -9 -62 18.5t-29 86.5z" />
<glyph unicode="_" horiz-adv-x="1568" d="M24 282.5q-5 13.5 4 55.5q14 56 14 67q0 8 39.5 27t61.5 27q4 0 51 -22q50 -28 231 -22.5t235 -3.5q30 -6 114.5 8t115.5 28q34 19 72 -2t69 0q36 21 122.5 9.5t108.5 -43.5q18 -30 19 -70.5t-17 -56.5q-21 -16 -72 -23.5t-66 5t-134 23.5t-233 11q-350 0 -421.5 -4.5 t-92.5 -27.5q-28 -30 -78 -47q-36 -12 -52 -9t-50 31q-36 26 -41 39.5zM296 -407q0 15 14 15t14 -15t-14 -15t-14 15zM1514 -415q-8 4 7 6h9q16 0 18 -6q-10 -10 -34 0z" />
<glyph unicode="a" horiz-adv-x="976" d="M22 278q2 78 60 199q41 86 69 121.5t104 97.5q115 91 171 109q39 13 68 29t46 24q12 5 28 5q6 0 14 -1q24 -3 32 -17t8 -31t9 -37t31 -32q48 -25 60 -95q7 -40 7 -84q1 -32 -3 -65q-2 -22 -3 -45q0 -59 16 -122q52 -234 69 -254q12 -12 48 4q19 9 38 9q14 -1 28 -5 q34 -10 34 -35q0 -24 -57 -63.5t-91 -42.5h-7q-21 -1 -33 11q-14 14 -40 68q-32 63 -49 146t-25 102l-17 44l-55 -60q-95 -106 -266 -193q-55 -28 -107 -28q-16 0 -32 3q-44 6 -62 19t-47 59q-46 80 -46 154v6zM133 236q25 -80 75 -86l10 -2q50 0 153 57q65 36 98 64.5 t69 80.5q56 85 57 99q1 9 -25 93q-15 51 -16 89q0 26 7 46q11 34 8 43.5t-23 15.5q-21 6 -35 6q-7 0 -11 -2q-14 -4 -82 -40q-109 -58 -176 -140.5t-105 -201.5q-12 -39 -12 -72q0 -27 8 -50z" />
<glyph unicode="b" horiz-adv-x="821" d="M20 352q-1 8 0 16q0 35 16 63q6 12 13.5 57.5t16 125.5t14.5 125q14 109 14 206q0 31 -1 59q-6 122 -45 294q-8 44 -6 58.5t19 26.5q25 19 44 19q44 0 58 -96q4 -30 6 -74q6 -135 7 -281v-39q0 -111 -5 -140q-8 -42 6 -42q19 2 44 57q31 69 67 81q11 4 27 4q35 0 94 -20 q105 -36 181 -85.5t149 -132.5q63 -72 63 -145q0 -26 -8 -53q-31 -100 -178 -193q-89 -57 -216.5 -106.5t-184.5 -49.5q-68 0 -111 35q-36 29 -36 65q0 8 2 16t2 17q0 31 -24 58q-24 30 -28 74zM190 411q8 -118 23 -135q11 -10 15 -27t1 -29.5t-14 -12.5q-14 0 -14 -15 q0 -14 22 -14q35 0 127 35q344 127 344 254q0 56 -66.5 132t-152.5 120q-47 26 -100 32q-16 2 -29 2q-31 0 -46 -10q-28 -15 -72 -115q-30 -65 -36 -100q-4 -20 -4 -55q0 -26 2 -62z" />
<glyph unicode="c" horiz-adv-x="695" d="M23 184q-1 8 -1 21q0 24 4 65q10 93 42 183q26 72 92 174.5t87 102.5q13 0 55 39.5t74 45.5q32 8 55.5 21.5t32.5 21.5q6 5 16 5q4 0 8 -1q14 -3 37 -23q21 -18 23.5 -32t-10.5 -52q-15 -44 -30 -50.5t-46 16.5q-18 14 -39 14q-41 1 -93 -47q-82 -74 -145.5 -194.5 t-72.5 -213.5q-2 -21 -1 -37q0 -19 2 -29q5 -18 34 -45q13 -10 16.5 -14t35 -14t71.5 -10t122.5 9t189.5 31q15 3 27 2q41 0 59 -29q8 -14 9 -27q0 -26 -29 -52q-21 -21 -42.5 -19t-47.5 10q-12 4 -31 4q-22 0 -52 -5q-61 -11 -163 -11h-32q-126 2 -151 17q-32 18 -72 68 q-30 34 -34 55z" />
<glyph unicode="d" horiz-adv-x="801" d="M29 302q-9 29 -9 60q0 42 16 85q28 76 79.5 150t117 127t119.5 67q63 14 99 30q17 7 37 7q22 0 50 -10q50 -19 72 -57q20 -42 2 -59q-15 -16 -49 -16t-43 14.5t-70.5 14.5t-91.5 -17q-130 -68 -193 -203q-38 -86 -38 -129v-8q4 -42 63 -69q48 -23 172 -37q60 -7 99 -6 q43 0 62 7q34 13 34 50t23 49q24 13 45 79q15 46 15 76q0 13 -3 22q-9 36 11 60.5t26 166.5q1 38 1 72q0 92 -11 153q-18 92 -19 295v21q0 183 17 203q20 24 48 24q12 0 26 -4q46 -14 45 -54q0 -24 -24 -49q-21 -25 -23 -162v-24q0 -123 19 -219q8 -42 9 -110v-33 q0 -50 -2 -99q-3 -65 -9 -183t-8 -214q-4 -157 -13 -164q-10 -10 -74 -31t-120 -35q-32 -6 -76 -6q-54 0 -129 9q-135 17 -204 48q-77 38 -98 108z" />
<glyph unicode="e" horiz-adv-x="727" d="M21 342q0 34 29.5 123.5t44.5 106.5q17 14 17 38q0 38 71.5 174t126.5 144q17 3 50 3q44 0 116 -5q126 -8 146 -19q24 -10 35 -80q6 -41 7 -86q0 -33 -4 -68q-6 -51 -16 -75t-34 -45q-30 -26 -56 -30q-10 -2 -31 -2q-32 0 -90 4q-57 4 -89 4q-16 0 -26 -1 q-30 -3 -47.5 -19t-28 -17t-29.5 12q-30 18 -44.5 3.5t-33.5 -79.5q-13 -45 -13 -63.5t17 -48.5q28 -42 53 -63q27 -23 125 -23h16q112 2 215 28q87 23 106 23l1 -1q18 0 35 -22q18 -23 18 -45q0 -38 -56 -70q-38 -20 -56 -17t-46 13q-11 4 -35 4q-33 0 -91 -8 q-76 -12 -128 -12q-20 -1 -37 1q-60 6 -124 39q-114 56 -114 179zM256 714q4 -14 31 -14q17 0 36 -14.5t51.5 -29t80.5 -14.5q65 0 85 25q17 21 18 74q0 10 -1 22l-4 64l-106 4q-20 1 -37 1q-58 0 -83 -10q-33 -14 -59 -61q-13 -27 -13 -41q0 -3 1 -6z" />
<glyph unicode="f" horiz-adv-x="1107" d="M21 677q0 30 76 39.5t164.5 10.5t103.5 10.5t15 99.5q0 148 69 148q19 0 46 46q19 32 89 90t110 75q15 6 62 6q28 0 67 -2q93 -4 138 -10.5t75.5 -28.5t38.5 -54t10 -97q1 -18 1 -34q0 -63 -13 -82q-8 -12 -22 -12q-15 0 -39 14q-42 26 -56 60t-26 66.5t-52 55.5 q-35 22 -70 22q-13 0 -26 -2q-48 -11 -82 -36.5t-66 -51t-48 -25.5q-30 0 -60.5 -54.5t-32.5 -109.5q0 -51 5.5 -60.5t41.5 -12.5t60 4t33 13.5t25.5 -1t48.5 -41.5q38 -38 42 -49.5t-13 -27.5q-25 -26 -134 -26l-111 -2l6 -215q5 -216 24 -246q14 -22 14 -47q0 -17 -6 -36 q-16 -46 -54 -58q-12 -3 -23 -3q-27 0 -48 17q-28 25 -30 61v6q0 33 16 62q14 23 14 52v11q-3 36 -10 100q-3 21 -3 51q0 59 10 150q3 21 3 36q0 33 -12 46q-10 12 -35 12q-15 0 -37 -5q-46 -10 -95 -10q-50 0 -101 10q-103 22 -103 65z" />
<glyph unicode="g" horiz-adv-x="817" d="M21 593.5q0 28.5 46.5 90t67.5 61.5q16 0 34 18q26 32 293 179q39 21 112 24q14 1 26 1q54 0 79 -13q34 -17 47 -47.5t-3 -58.5q-12 -15 -7 -31t12.5 -24t25.5 -29t29 -43q13 -29 13 -170v-57q-3 -194 -21 -239q-19 -52 -22 -128q0 -70 -26.5 -179t-53.5 -151 q-21 -32 -47 -43q-17 -7 -37 -7q-14 0 -29 3q-39 7 -73 20t-94.5 38t-108.5 41q-86 29 -114 63q-14 15 -14 31q0 17 17 33q14 17 30 16.5t65 -18.5q72 -23 131 -81q38 -40 57 -48t57 -2q55 9 71 26q16 15 54.5 189t49.5 280q3 32 3 53q0 40 -12 40q-13 0 -35 -28 q-19 -24 -97 -53.5t-176 -51.5q-45 -11 -68 -11q-6 0 -10 1q-23 3 -72 28q-74 36 -96 64q-30 32 -67 108.5t-37 105zM148 579v-8q0 -35 44 -88q36 -42 108 -60q31 -8 65 -8q44 0 91 13q86 23 148 87q36 40 41 59q2 8 2 27q0 23 -3 61q-4 37 -4 59q0 11 1 19q3 23 15 37 q24 18 24 28q0 4 -5 7q-4 4 -17 -2q-19 -6 -38 15q-17 21 -55 21q-42 0 -109 -26q-129 -48 -237 -145q-65 -59 -71 -96z" />
<glyph unicode="h" horiz-adv-x="803" d="M22 332q2 26 7 39t10 95t5 216q0 175 12 303q12 129 18 179q4 30 4 52q0 15 -2 26q-6 30 6.5 55.5t27.5 36t23 10.5q20 0 54 -20t47 -42q14 -14 7 -35t-19.5 -34t-30.5 -53t-26 -93q-15 -82 -25 -321q-6 -129 -6 -193q0 -55 4 -62q9 -16 31.5 -6t22.5 32q0 24 55 97.5 t116 128.5q68 62 113 62t110 -60q72 -65 99.5 -126.5t31.5 -161.5q1 -18 1 -35q0 -34 -3 -62q-4 -44 -6 -55t2 -19t25 -18q43 -17 47 -41v-6q0 -23 -26 -58q-29 -36 -73 -52q-19 -7 -34 -7q-20 0 -32 12q-11 13 -11 137q0 35 1 79l6 199l-46 68q-47 68 -68 85 q-19 16 -55 3.5t-72 -47.5q-46 -47 -102 -145t-68 -155q-17 -72 -46 -110q-24 -28 -36 -32t-45 9q-30 10 -39 24t-13 53q-3 14 -3 30q0 9 1 18z" />
<glyph unicode="i" horiz-adv-x="435" d="M20 114q0 9 4 15q6 8 13 19t16.5 49.5t14.5 100.5q4 78 15.5 145.5t14.5 87.5q1 7 1 20q0 26 -4 77q-3 26 -3 48q0 50 18 77q20 30 44 30q6 0 13 -2q42 -11 53.5 -28t9.5 -54t-23 -134q-28 -125 -30 -197v-24q-1 -54 7 -86q4 -18 5 -53q0 -40 -6 -102q-6 -63 -14 -81 t-34 -28q-20 -7 -35 -7q-16 -1 -28 7q-22 16 -40 69q-12 40 -12 51zM89 1113q0 32 15 45.5t92 47.5q98 40 128 44h7q27 0 57 -24q28 -21 28 -37t-11 -56q-17 -57 -41 -89t-68 -52q-25 -12 -43 -12h-2q-19 0 -66 18q-60 24 -78 45.5t-18 69.5z" />
<glyph unicode="j" horiz-adv-x="767" d="M21 50q11 46 57 46q12 0 25 -3q61 -15 82 -67q4 -12 4 -25q0 -22 -12 -45q-10 -19 -10 -33q0 -37 69 -37q99 0 188 49q15 6 23 15q84 68 125 204q37 118 37 276q0 23 -1 47q-6 165 -28 189q-24 28 -30 78q-2 14 -2 26q0 28 11 42q21 22 53 22q5 0 10 -1q40 -4 60 -34 q28 -39 28 -286v-9q-1 -255 -26 -327q-26 -65 -26 -95q0 -16 -9 -41t-27 -60.5t-23 -43.5q-12 -26 -67 -61t-119 -53q-80 -26 -173 -32q-25 -2 -45 -2q-53 0 -66 12q-30 24 -73 123q-36 86 -36 117q0 5 1 9zM443 1089q0 17 14 40q13 24 33.5 29.5t74.5 5.5q87 0 133 -29 q50 -30 50 -64v-4q-3 -36 -64 -93q-73 -71 -116 -71q-4 0 -8 1q-45 8 -89 106q-28 62 -28 79z" />
<glyph unicode="k" horiz-adv-x="793" d="M22 204q-1 3 -1 7q1 13 5 33q6 28 15 63t28.5 118.5t37.5 184.5q21 124 29 245q5 86 5 154q0 27 -1 51q-3 84 -8 152q-4 49 -4 84q0 14 1 26q2 42 14 59q20 23 42 23q19 0 39 -16q34 -27 34 -68q0 -12 -3 -25q-8 -36 -16.5 -260.5t-29.5 -361.5q-19 -115 -19 -149 q0 -12 2 -13q6 -6 31.5 14.5t68 55.5t71.5 53q23 15 102 85t149 130t80 60q17 0 47.5 -33.5t30.5 -50.5q0 -26 -33.5 -53t-63.5 -27q-36 0 -158 -97l-120 -100l90 -86q89 -88 89 -105t68 -87q66 -70 76 -111q2 -9 2 -18q0 -32 -30 -61q-38 -38 -55 -38q-23 0 -57 44 q-28 36 -28 57q0 4 1 8q1 6 1 13q0 34 -31 90q-38 68 -92 117q-59 50 -89 56q-4 1 -9 1q-28 0 -71 -31q-41 -26 -53.5 -61.5t-22 -82t-32.5 -80.5q-27 -42 -63 -42t-57 42q-10 19 -12 31z" />
<glyph unicode="l" horiz-adv-x="689" d="M21 236q0 20 44 68t44 56q0 3 105.5 245.5t105.5 276.5q0 20 14 35t22 49q7 26 38.5 73.5t56.5 116.5q19 48 38.5 95t25.5 63.5t10 34.5t4 34q1 49 37 79q16 13 35 13q23 0 49 -20q20 -17 20 -28q0 -10 -22 -48q-28 -52 -28 -69q0 -12 -105.5 -234t-105.5 -241 q0 -8 -44.5 -110.5t-44.5 -106.5q0 -16 -25 -67t-46 -112q-15 -44 -15 -82q0 -14 2 -28q6 -36 -1 -60t-36 -68q-30 -44 -45 -55q-10 -7 -24 -7q-8 0 -18 2q-32 6 -61.5 37t-29.5 58z" />
<glyph unicode="m" horiz-adv-x="1210" d="M40 852q26 28 57 28q20 0 42 -12q57 -30 60 -98q0 -62 6 -104t13.5 -52t12.5 -23t7 -18t-2 -37q-2 -10 -2 -19q0 -30 21 -42q19 -10 24 -7t5 23q0 40 110 169t146 129q30 0 76 -56t61 -109q20 -76 34 -78q8 -2 23 24.5t35 64.5t42 76t48.5 65t49.5 27h1q15 0 54 -43 q40 -45 40 -62q0 -8 11.5 -37t32.5 -85.5t39 -122.5q14 -61 23.5 -92.5t24 -74.5t27.5 -85l28 -87l-43 -34q-25 -20 -41 -25q-6 -2 -11 -2q-11 0 -24 6q-25 12 -47 69q-15 39 -15 64q0 12 3 21q4 11 4 29q0 54 -38 176q-50 162 -86 184q-5 3 -12 3q-21 1 -56 -33 q-39 -37 -39 -61q0 -5 2 -9q6 -17 -9 -35t-15 -62q0 -49 -29 -87t-70 -38q-32 0 -47 29t-22 100q-8 74 -28.5 147.5t-35.5 77.5h-2q-14 0 -86 -61q-78 -66 -83 -66q-10 0 -26 -41.5t-10 -52.5q9 -14 -9.5 -37.5t-20.5 -143.5v-123l-58 -20q-38 -15 -51.5 -14t-30.5 18 q-21 21 -21 78v10q4 77 4 144q0 276 -67 367q-49 63 -49 109q0 29 19 51z" />
<glyph unicode="n" horiz-adv-x="830" d="M21 304q0 18 5 44q14 93 20 269q2 65 3 111q0 77 -7 99q-3 8 -3 17q0 26 22 63q20 34 33 40.5t39 0.5q46 -10 56 -30q4 -8 3 -20q0 -20 -9 -52q-16 -51 -32 -189q-12 -100 -12 -132q0 -12 2 -14q6 -6 45.5 29.5t39.5 47.5q0 8 70.5 101.5t81.5 97.5q12 6 12 25 q0 14 29.5 29.5t29.5 34.5q0 23 48.5 73.5t72.5 50.5q27 0 48.5 -27t36.5 -63.5t29 -44.5q21 -18 21 -53q0 -15 5 -31t13.5 -39t23 -97.5t28.5 -189.5q8 -72 21.5 -92.5t13.5 -58.5q0 -34 -6.5 -43.5t-28.5 -9.5q-30 0 -57.5 29.5t-27.5 59.5q0 24 -32 54q-25 28 -25 68 q1 6 1 10q4 46 14 98q3 13 2 28q0 47 -24 117q-8 26 -17.5 55t-14 44t-9.5 27.5t-10 18t-12 5.5q-16 0 -83 -68.5t-98 -119.5q-26 -36 -70 -87.5t-65 -89.5l-34 -69q-12 -21 -44 -93q-42 -95 -99 -100h-2q-42 0 -47 66z" />
<glyph unicode="o" horiz-adv-x="701" d="M26 230q-6 4 -6 28q0 32 10 98q18 116 35 139q12 17 38 85q24 61 86 128t95 67q36 -1 45 22q6 19 23 21q3 0 6 1q15 0 32 -10q21 -12 42 -25.5t42 -26t33 -12.5q34 0 104.5 -172t70.5 -255q0 -88 -89 -179t-208 -133q-61 -22 -111 -22q-48 0 -87 20q-38 21 -93.5 90 t-55.5 96q0 25 -12 40zM132 276q11 -36 11 -67q0 -36 47.5 -79t87.5 -43q74 0 176.5 72.5t133.5 148.5q11 30 11 53q-1 3 -1 6q-2 25 -24 100q-34 107 -97 167q-57 58 -95 62q-3 0 -6 1q-37 0 -100 -39q-50 -32 -71.5 -53t-25.5 -36.5t-14.5 -59.5t-29.5 -94 q-16 -58 -16 -79q0 -19 13 -60z" />
<glyph unicode="p" horiz-adv-x="860" d="M22 -208q-1 8 -1 15q0 14 3 29q4 23 14 59.5t21 74.5t25.5 97.5t24.5 115.5q13 68 29 111.5t31 138.5q11 70 11 97t-17 54q-21 32 -21 67q0 68 79 146q49 47 70 55q13 4 44 4q21 0 51 -2q63 -2 93 -9.5t70.5 -33.5t76.5 -41q55 -27 128 -105.5t81 -120.5q4 -21 4 -38 q0 -23 -7 -40q-11 -31 -57 -88q-43 -53 -124 -96.5t-158 -55.5q-40 -7 -78.5 -25t-114.5 -18h-89l-21 -58q-15 -43 -21 -107t-8 -114.5t-10 -96t-30 -63.5q-12 -10 -30 -10q-13 0 -30 6q-19 9 -28 20.5t-11 31.5zM247 324q10 -14 82 -14h19h17q126 2 175 10q44 9 113.5 68 t69.5 89q0 46 -36.5 95.5t-90.5 85.5t-114 62q-58 26 -103 26h-3q-47 -1 -72 -23q-10 -14 -13.5 -57.5t-7 -106t-15.5 -106.5q-2 -6 -6 -16q-18 -68 -18 -96q0 -12 3 -17z" />
<glyph unicode="q" horiz-adv-x="779" d="M23 332q3 73 23 127q28 70 78.5 148.5t84.5 99.5q36 23 44 76q9 42 38 71q20 19 51 19q14 0 31 -4q44 -8 211 -8q151 0 165 -13q6 -4 8 -19q2 -12 2 -32q0 -44 -9 -131q-14 -124 -27 -137q-14 -14 -14 -42q0 -30 -63.5 -111.5t-143.5 -158.5q-89 -80 -89 -91q0 -3 7 -3 q17 0 71 16q69 21 116 21q37 0 59 -14q41 -24 41 -97q0 -17 -2 -37q-9 -76 -32 -124l-51 -118q-30 -68 -84 -130q-38 -41 -58.5 -51.5t-66.5 -10.5q-42 0 -63 9.5t-54 45.5q-51 55 -60 107q-5 24 -5 66q0 46 5 114q11 128 26 148q16 19 11 20t-60 5q-48 4 -105.5 43 t-71.5 79q-13 38 -13 95v22zM121 351q0 -62 20 -96q34 -57 90 -57q21 0 45 8q89 28 193 152q151 180 151 302v70h-86q-53 0 -74 -4.5t-54 -20t-58 -26.5q-42 -17 -116.5 -97t-74.5 -109q0 -21 -16 -36q-20 -24 -20 -86zM331 -80q-12 -28 -12 -63q0 -41 17 -91q23 -74 68 -76 h2q44 0 94 72q36 48 44 55q20 18 48 95q24 68 24 104v10q-4 54 -28 56q-9 1 -18 1q-40 0 -78 -19q-45 -22 -49 -22q-17 0 -51 -30.5t-61 -91.5z" />
<glyph unicode="r" horiz-adv-x="779" d="M21 226q0 19 4.5 51.5t8.5 62t11.5 82.5t13.5 99q10 83 28 163.5t18 114.5q0 49 28 73q17 14 35 14q12 0 26 -6q20 -11 31.5 -10t25.5 16q25 20 59 22h4q36 0 133 -22q99 -21 181 -61q81 -41 115 -85q19 -24 19 -45q0 -17 -13 -33q-19 -20 -57 -20q-26 0 -118.5 49.5 t-118.5 78.5q-23 26 -72 36q-19 4 -36 5q-26 0 -45 -10q-34 -16 -70 -84.5t-39 -121.5t-42 -93l-37 -43h33q17 0 22.5 -4t-0.5 -12q-12 -19 -12 -152q0 -90 -6 -116t-30 -46q-27 -22 -36 -22q-10 0 -35 26q-10 10 -17 23t-9.5 32t-2.5 38z" />
<glyph unicode="s" horiz-adv-x="701" d="M21 540q0 8 1.5 46t3.5 57t9 44.5t20 35.5q101 91 178 142t108.5 67t44.5 30q15 16 42 16q1 0 2 -1q26 0 61 15q28 16 53 16q21 0 39 -11q34 -21 34 -62q0 -8 -1 -17q-10 -55 -26 -67t-61 8q-32 12 -53 11t-71 -20q-61 -21 -136 -76t-94 -92q-12 -24 -5 -41t31 -17 t101.5 -24t89.5 -37q15 -12 34 -12q26 0 94 -53t104 -99q50 -69 56 -117q1 -6 1 -13q0 -41 -31 -82q-48 -65 -186 -123q-121 -51 -198 -51q-11 0 -21 1q-28 2 -37 -3t-14 -23q-4 -32 -26 -50q-16 -12 -30 -12q-6 0 -13 2q-19 6 -43.5 61t-24.5 91q-1 45 27 55q9 3 23 4 q26 0 68 -14q51 -17 73 -17q1 0 1 -1q22 0 65 16q183 62 228 113q20 24 20.5 35t-20.5 51q-17 32 -47 56.5t-96 58.5q-75 38 -118 49t-130 18q-84 6 -107 12.5t-23 23.5z" />
<glyph unicode="t" horiz-adv-x="803" d="M24 741q-2 15 -2 28q0 19 4 32q6 22 19.5 32.5t40 14.5t54 4t71.5 4.5t87 12.5q52 13 66 25.5t26 59.5l45 149q13 53 13 87v12q-3 36 -14.5 51t-7 32.5t35.5 49.5q39 38 49 38q20 0 48.5 -28.5t28.5 -49.5q0 -26 -14.5 -72t-31.5 -90t-33 -91.5t-18 -74.5t13 -37 q7 -2 16 -2q24 0 66 14q58 20 87 45q18 16 32 19.5t40 -6.5q39 -14 39 -57q0 -40 -35 -84q-26 -30 -38.5 -34t-48.5 6q-14 6 -49 7h-14q-29 0 -61 -3q-40 -4 -69.5 -26t-29.5 -58t-15 -61q-36 -63 -83 -299.5t-57 -398.5q-2 -26 -13 -41.5t-41 -30.5q-33 -20 -50 -20 q-11 0 -17 8q-6 9 -6 30q0 27 10 76q42 236 88.5 429.5t67.5 263.5q18 59 18 71q0 2 -1 3t-5 1q-17 0 -83 -22q-80 -26 -115 -49q-36 -25 -64 -25q-7 0 -13 2q-32 8 -36 53z" />
<glyph unicode="u" horiz-adv-x="691" d="M24 752q4 16 24 35q32 30 51 30q3 -1 5 -1q20 -4 39 -46q10 -29 13 -49.5t-2 -43.5t-12 -106.5t-9 -199.5q-1 -31 -1 -59q0 -172 22 -187q13 -11 47 10q46 30 125 115.5t105 129.5l64 115q30 57 30 149q-1 100 33 132q13 13 30 12q25 0 58 -29q26 -21 26 -53q0 -8 -2 -16 q-8 -44 -30 -81t-45 -78.5t-23 -59.5q0 -17 -30.5 -44.5t-22.5 -38.5q2 -3 2 -7q-1 -27 -65 -111q-74 -98 -167 -185t-122 -87q-68 2 -101.5 50.5t-36.5 124.5q-2 38 -1.5 80.5t1.5 89.5q3 93 8 185q1 22 1 44q0 68 -12 130q-4 20 -4 34q0 10 2 16z" />
<glyph unicode="v" horiz-adv-x="876" d="M36 861q14 29 50 31q2 0 4 1q34 0 55 -26q15 -16 25.5 -46t30.5 -89t50 -122q47 -101 58 -134t20 -90q8 -68 47 -112l35 -44l34 44q40 50 85.5 129.5t45.5 93.5q0 13 23 40.5t38 70.5q10 32 32.5 79t30.5 100q9 65 34 95q25 29 62 29q4 -1 8 -1q42 -4 50 -37q2 -9 2 -18 q0 -29 -19 -65q-25 -47 -67 -69q-44 -23 -44 -50q0 -21 -15 -37t-15 -37q0 -27 -10 -34q-12 -4 -54 -88.5t-42 -101.5q0 -15 -50.5 -81t-50.5 -71q0 -8 -10 -78q-6 -48 -17 -64t-47 -33q-27 -12 -47 -13h-4q-17 1 -29 11q-13 12 -21 29.5t-14 45.5t-13 56t-16 62.5t-22 64.5 q-16 40 -17 78q0 46 -59 168.5t-97 158.5q-55 50 -55 101q0 26 15 53z" />
<glyph unicode="w" horiz-adv-x="1091" d="M23 622q3 12 12 45t9 63q0 28 10.5 41.5t42.5 27.5q33 17 52 17q9 0 14 -4q10 -11 61.5 -204t77.5 -241q29 -56 53 -56q2 0 5 1q13 2 13 28q0 28 21 46q21 17 52 93t47 153q17 77 32 102t43 25q40 1 50 -33q4 -13 4 -35q0 -34 -10 -89q-12 -73 -12 -98v-5q2 -22 22 -50 q32 -40 64 -41h1q32 0 96 35q63 36 88 64.5t35 75.5t14 162q4 133 10 164t34 57q35 30 59 30t38 -28q11 -20 11 -44q0 -16 -5 -34q-12 -44 -44 -65q-32 -22 -32 -44q1 -4 1 -8q6 -26 -14 -34q-26 -9 -26 -58q0 -45 22 -65q26 -24 26 -48t-28 -77q-54 -107 -215 -179 q-51 -23 -90 -23q-15 0 -29 3q-48 12 -83 68q-37 57 -56 57q-11 0 -16 -20q0 -7 -2 -13q-2 -24 -24 -57t-37 -82q-38 -114 -100 -114q-38 0 -54.5 31.5t-38.5 110.5t-50 134q-30 59 -30 91.5t-8 58.5q-10 26 -38 23q-12 -2 -12 -15q0 -23 -30 -10q-21 6 -29 25q-8 23 -8 36 q0 3 1 6z" />
<glyph unicode="x" horiz-adv-x="879" d="M21 127q0 42 18 66t44 34.5t77 49.5t102 99q20 28 58 73q83 99 92.5 120t-11.5 47q-17 24 -28 40q-34 61 -103 158.5t-93 113.5q-34 28 -35 56t31 52q30 21 56 21q17 1 31 -7q38 -20 54 -88q6 -28 18 -47t38.5 -56.5t53.5 -86.5q49 -86 63 -97q2 -1 5 -1q19 0 69 50 q57 58 61 86q4 32 44 53q28 10 42.5 10t44.5 -17q46 -24 46 -34t9 -41.5t-18 -56t-67 -24.5q-32 0 -97 -45t-65 -71q-2 -32 77 -147t153 -188q61 -61 67 -99q1 -4 0 -8q0 -35 -41 -77q-28 -27 -43 -31q-5 -1 -10 -1q-11 0 -23 7q-28 15 -46 46.5t-9 52.5q4 14 -16 38t-26 57 q-6 32 -64.5 124.5t-88.5 118.5q-8 0 -11 2t-16 -9t-21 -19t-26 -29t-34 -39t-41.5 -46.5t-47.5 -56.5q-77 -82 -85 -117q-28 -105 -104 -106q-84 0 -84 70z" />
<glyph unicode="y" horiz-adv-x="787" d="M24 -157q0 21 17.5 35.5t59.5 55t86 110.5l73 107l-49 48q-26 26 -38 49.5t-15.5 43.5t-11 69.5t-17.5 95.5q-9 41 -9 61q0 13 3 18t3 19q0 30 -15 101q-22 105 -43 133q-28 37 -28 63t28 42q28 14 46.5 17t35.5 -10t27 -39.5t20 -73.5t17 -110.5t14 -156.5 q4 -68 17 -112q8 -30 21.5 -37t62.5 -9l70 -3l58 105q61 105 62 111q0 8 21 41t48.5 89.5t37.5 118.5q17 93 32 112q14 18 46 18h3q34 -1 50 -21q12 -12 12 -35q0 -10 -3 -23q-7 -39 -21.5 -72.5t-30.5 -65t-16 -38.5q0 -10 -82 -147.5t-82 -143.5q0 -8 -97 -151.5 t-97 -150.5q0 -6 -42.5 -66t-89.5 -140t-57 -135q-10 -72 -24.5 -100.5t-39.5 -28.5q-32 0 -51 61q-14 44 -14 99q0 22 2 46z" />
<glyph unicode="z" horiz-adv-x="801" d="M24 732q4 14 29 38q29 28 38.5 29.5t39.5 -16.5q26 -17 71 -22.5t174 -5.5q143 0 176 4t47 28q21 26 47 26q4 -1 8 -1q30 -4 59.5 -41t35.5 -85q4 -42 0 -58t-28 -36q-35 -27 -57 -27h-2q-20 0 -92.5 -70.5t-72.5 -91.5q1 -13 21 -15q7 -1 18 -1q23 0 66 3q34 3 59 3 q33 1 49 -5q28 -10 29 -48q1 -36 -45 -48q-26 -7 -74 -7q-35 0 -82 4l-139 11l-70 -95q-59 -80 -59 -102q0 -4 2 -6q4 -4 21 -4q37 1 136 19q145 28 191 51q38 18 54 19t47 -15q40 -19 53 -56q6 -16 6 -33q0 -22 -10 -44q-10 -21 -24 -28.5t-46 -7.5q-50 0 -60 14 q-4 7 -39 7q-51 0 -167 -15q-196 -25 -269 -54q-23 -8 -38 -8h-3q-15 1 -40 18q-25 16 -29.5 29t2.5 49q6 32 30.5 63.5t83.5 85.5q96 90 96 109q0 1 -1 2q-8 14 -36 0q-15 -9 -29 -3.5t-38 29.5q-40 43 -40 78q0 26 22 49q15 15 27.5 15.5t48.5 -15.5q51 -21 102 -21 q9 0 17 1q60 4 84 34q128 144 128 171q0 2 -1 4q-7 10 -191 10h-66l-252 -2l-14 42q-5 19 -5 31q0 7 1 11z" />
<glyph unicode="{" horiz-adv-x="849" d="M48 644q-74 38 39 119q46 36 120 72q46 21 73.5 37t38 31t12 24t-19 24t-40.5 25.5t-64 31.5q-76 36 -102 65q-28 30 -32.5 102.5t17.5 91.5t22 33q0 20 62 93t106 105q118 84 182 110q7 2 40.5 19.5t65 31.5t66 22t56 -4.5t21.5 -50.5q0 -34 -30.5 -54t-83.5 -20 q-60 0 -99 -21t-146 -112q-101 -86 -135 -132.5t-27 -94.5q2 -36 18 -51.5t48.5 -30.5t53.5 -32q8 -6 86.5 -40t96.5 -68q15 -30 12 -41t-30 -39q-24 -21 -67 -46t-72.5 -43t-29.5 -26q0 -15 52 -39q41 -16 69 -57.5t28 -81.5q0 -27 -77 -102q-175 -160 -150 -240 q8 -25 28 -37.5t53 -13.5t64.5 2t81 9t83.5 9q38 2 80 9t66.5 12.5t52.5 2.5t52 -18q63 -43 26 -114q-15 -27 -33.5 -27t-47.5 27q-20 19 -41.5 21t-93.5 -8q-105 -15 -152 -30q-53 -15 -137 -11.5t-129 21.5q-99 42 -99 165q0 34 10.5 57t40.5 55l120 129q51 55 57 69.5 t-12 33.5q-28 26 -124 19t-126 7z" />
<glyph unicode="|" horiz-adv-x="660" d="M23 1547.5q-5 59.5 7 95.5q10 32 24 38t71 6h82v-48q0 -38 -19 -69.5t-21 -88.5q-2 -38 -6 -107.5t-5.5 -103.5t1 -84.5t8.5 -96.5q10 -97 7 -119t-9 -128t-2 -254q2 -101 4 -160t-4.5 -89.5t-16 -39t-30.5 -5.5q-30 4 -51 28t-15 47q9 25 11 546.5t-15 552.5 q-16 20 -21 79.5zM536.5 -363q-0.5 15 14 15t14.5 -15t-14 -15t-14.5 15zM610 -363q0 15 15 15t14.5 -15t-15.5 -15q-14 0 -14 15z" />
<glyph unicode="}" horiz-adv-x="902" d="M23 -10.5q1 29.5 20.5 50.5t45 34t53 10.5t41.5 -21.5q17 -17 55 -11.5t42 -5.5q8 -14 127.5 12t178.5 56q26 15 45 31t19 26q0 24 -55 89q-46 56 -86 155.5t-40 160.5q0 32 11 53t41 50q87 80 34 78q-6 0 -19 -4q-36 -8 -74 16t-38 56q0 30 120 143l120 115l36 246 l-44 44q-30 30 -52 37t-83 7q-93 0 -165 -36q-86 -44 -118.5 -33t-16.5 75q5 19 14.5 31t35 20.5t48.5 12.5t80.5 14.5t107.5 19.5q105 19 133 12.5t44 -23t33 -16.5q4 0 13 -5.5t21 -18.5t24 -32t20 -52.5t8 -71.5q-2 -154 -24 -230t-83 -136q-46 -45 -46 -56q0 -8 20 -11 t44.5 0t36.5 11q40 26 91.5 -15.5t37.5 -87.5q-9 -30 -135 -91q-115 -54 -138 -88t-3 -115q12 -52 54 -130t74 -105q19 -15 27 -70q6 -34 -1 -50.5t-39 -48.5q-48 -47 -105 -72q-49 -19 -209 -43t-177 -16q-17 4 -19 3t-31 -14.5t-57 -26.5q-41 -13 -53.5 -12t-27.5 20 q-18 30 -17 59.5z" />
<glyph unicode="~" horiz-adv-x="960" d="M21.5 353.5q-0.5 11.5 12.5 30.5l82 116q61 88 131 160q44 47 66.5 58.5t62.5 11.5q38 0 64.5 -11.5t70.5 -50.5q46 -38 65 -64t25.5 -44t14.5 -31q14 -16 44 -64q30 -49 65.5 -50.5t59.5 44.5q18 41 14 71.5t6 39.5q11 12 21.5 111.5t27.5 109.5q38 24 68 -26 q42 -70 -6 -166q-32 -64 -32 -92q0 -34 -34.5 -108.5t-66.5 -107.5q-32 -31 -57.5 -36.5t-46.5 14.5t-41 51.5t-42 74t-47.5 81.5t-61.5 74.5t-78 55.5q-32 12 -46.5 12t-38.5 -16q-46 -30 -98.5 -106t-91.5 -140.5t-54 -71.5q-16 -4 -42 34q-16 24 -16.5 35.5z" />
<glyph unicode="&#xa9;" horiz-adv-x="1178" d="M24 723q-11 40 15 202t50 200q6 10 10 38.5t10.5 59.5t39 82.5t91.5 107.5q50 49 110.5 86t174.5 89q49 21 94 22.5t73.5 -6.5t75.5 -27t69 -27q41 -10 54.5 -19.5t30 -35t36.5 -44.5q74 -78 157 -257q28 -59 34.5 -102t6.5 -180l2 -201l-65 -63q-49 -46 -139.5 -89.5 t-172.5 -61.5q-105 -20 -319.5 -1t-265.5 55q-40 30 -51 29q-16 0 -65.5 58t-55.5 85zM97 829q-8 -68 22 -115.5t113 -87.5q58 -32 106 -41t179 -20q171 -10 246.5 2.5t202.5 76.5q76 36 92.5 53.5t32.5 72.5q28 108 10 248t-70 218q-16 26 -53.5 88t-61.5 92.5t-51 47.5 q-38 23 -82 27.5t-55 -12.5q-12 -21 -42 -14t-40 35q-36 94 -249 -55q-131 -91 -178 -154q-6 -9 -6 -13q0 -14 -23 -38q-15 -16 -45.5 -154t-47.5 -257zM361.5 1020.5q1.5 54.5 32.5 104.5q43 56 78 92.5t49 36.5q15 0 48 24t77 36q30 9 48.5 18.5t22.5 15.5t9.5 9.5t13 0 t27.5 -13.5q24 -14 27 -41t-15 -45q-20 -20 -81 -20q-94 0 -177.5 -90.5t-83.5 -137.5q0 -27 44 -86t80 -80q43 -24 93.5 -23.5t62.5 23.5t40 16.5t48 -35.5q24 -34 -1 -64.5t-81 -28.5q-72 0 -140 24.5t-115.5 66.5t-77.5 92.5t-28.5 105zM481 -363q0 15 15 15t14.5 -15 t-15.5 -15q-14 0 -14 15zM839 -363q0 15 16 15t15.5 -15t-16.5 -15q-15 0 -15 15z" />
<glyph unicode="&#xab;" horiz-adv-x="1024" d="M21 660q0 24 46.5 61.5t73.5 37.5q12 0 19 4t5 12q-6 10 85 86.5t159 119.5q40 23 66.5 47.5t33 33.5t17 9t35.5 -12q30 -17 29 -53q0 -30 -49.5 -61t-127 -74.5t-119.5 -85.5q-43 -40 -56 -40q-14 0 -47.5 -34t-33.5 -51q0 -20 66 -51t111 -27q50 2 93.5 -9.5 t43.5 -28.5q4 -32 -1 -70.5t-17 -49.5q-8 -8 -67 13.5t-78 15.5q-38 -12 -162.5 77.5t-124.5 129.5zM544 759q0 26 38 73.5t60 47.5q12 0 84.5 59t94.5 59q28 0 47.5 -17t19.5 -40t-26.5 -49.5t-49.5 -26.5q-28 0 -80.5 -47.5t-52.5 -72.5q0 -36 52 -69.5t107.5 -33.5 t102 -22.5t58 -52t-11.5 -58.5q-15 -15 -31 -16.5t-31.5 6.5t-44.5 15t-61 7q-57 0 -166 79t-109 159z" />
<glyph unicode="&#xac;" horiz-adv-x="1109" d="M21 717q4 282 23 304q36 46 127 -2q24 -11 43.5 -14t38.5 0t65.5 8.5t99.5 7.5q99 6 150 36q36 23 79 27.5t195 2.5l225 -4l13 -60q11 -40 7 -54.5t-28 -32.5q-28 -23 -61.5 -21.5t-41.5 -14.5q-10 -12 -25 -7t-55 31q-45 32 -70 36t-110 -4q-65 -6 -98 -16t-40 -17 t-20 -16t-60 -15t-140 -8q-181 -6 -193 -17q-6 -4 -13 -76t-9 -154t14 -137q21 -55 8.5 -92t-50.5 -37q-28 0 -41.5 10.5t-21.5 51t-9.5 102.5t-1.5 182z" />
<glyph unicode="&#xad;" d="M21.5 525.5q-0.5 8.5 18.5 27.5q21 24 93 24.5t138.5 -4.5t122.5 15q39 17 86 13t73 -27q30 -30 12 -101q-12 -55 -42 -53q-10 2 -21 11q-24 18 -228 24q-139 4 -177 11t-57 27q-18 24 -18.5 32.5z" />
<glyph unicode="&#xae;" horiz-adv-x="1062" d="M22.5 936.5q-8.5 92.5 11.5 168.5q10 47 23 106t18 86.5t16.5 67.5t21.5 57t29 44.5t39 41t55.5 37t75.5 42t101 46.5q46 20 92 22.5t74.5 -6t75.5 -27.5t71 -26q38 -12 52.5 -22t32.5 -36t45 -51q40 -34 62 -67.5t80 -147.5q34 -70 40 -109.5t4 -204.5 q-2 -152 -7.5 -193.5t-28.5 -72.5q-44 -63 -66 -92.5t-55 -60t-51.5 -40.5t-62 -19t-80.5 -10t-111 -1q-129 2 -173 8t-99 32q-70 32 -138.5 100t-80.5 117q-9 42 -28 71q-30 47 -38.5 139.5zM95 1000q0 -122 25 -184.5t108 -149.5q68 -70 138.5 -100t190.5 -39 q95 -6 125.5 -2t82.5 30q74 38 113 87q64 88 76 131.5t16 207.5q2 143 -2 185.5t-30 95.5q-36 76 -97.5 156t-99.5 99q-36 19 -76.5 21t-50.5 -15q-12 -20 -42 -13.5t-41 36.5q-14 36 -54 36q-49 -2 -131 -49.5t-125 -93.5q-40 -49 -69 -102t-21 -63q6 -4 -1 -26t-21 -89.5 t-14 -158.5zM299.5 736q-10.5 27 2.5 112q4 38 6 61t4 69.5t2 88.5q2 68 10 96.5t32 64.5q43 54 43 70t14 46q12 24 34 26.5t44 -7t65 -22t86 -12.5q28 0 41 -5.5t18.5 -10.5t13.5 -29t15 -40q19 -42 -7.5 -96.5t-80.5 -88.5q-63 -38 -64 -49q0 -4 25 -28t66.5 -46t71.5 -16 q25 4 40.5 -3.5t41.5 -36.5q32 -41 37 -62t-16 -39q-26 -26 -65.5 -17.5t-73.5 43.5q-34 34 -100.5 72.5t-117.5 80.5q-68 57 -74 57t-7 -25.5t3 -59.5t11 -52q13 -47 -6.5 -97.5t-53.5 -59.5q-50 -12 -60.5 15zM451 1149q8 -46 17 -53t47 -1q40 6 88.5 44t48.5 61 q0 16 -57 42q-74 34 -92 35t-36 -29q-26 -36 -16 -99z" />
<glyph unicode="&#xb0;" horiz-adv-x="596" d="M21 1183q0 49 26.5 92t63 72.5t76 51.5t67.5 33t35 9q19 -8 31 -8q13 0 108 -93.5t120 -128.5q44 -68 17 -129t-132 -124q-152 -93 -349 95q-42 42 -52.5 63t-10.5 67zM101.5 1175q3.5 -13 39.5 -50q42 -42 88.5 -69t78.5 -27q30 0 103 38q72 36 74 70t-63 89 q-64 52 -116 78l-15 8t-18 8t-16.5 4.5t-21 0t-22 -10.5t-28.5 -20t-32 -34t-37 -49q-18 -23 -14.5 -36z" />
<glyph unicode="&#xc0;" horiz-adv-x="1244" d="M21 1428q4 34 12.5 46.5t36.5 23.5q32 10 48.5 0.5t66.5 -65.5l139 -153q47 -46 70.5 -83t109.5 -130q74 -82 95 -97.5t41 -1.5q36 32 216 241.5t180 223.5q-1 16 37 54q47 47 90 35t59 -73q4 -20 -3.5 -31t-37.5 -23q-58 -24 -266 -255t-208 -273q0 -8 6 -19t26 -38 t49 -63t86.5 -117.5t125.5 -180.5q49 -72 93 -121.5t64 -66t31.5 -36.5t11.5 -54t-7 -46.5t-33 -23.5q-47 -17 -81.5 7.5t-55.5 67.5t-54 105.5t-66 96.5q-36 38 -96 135t-79 113q-14 13 -34.5 49t-38.5 60t-33 22q-26 -4 -78 -103q-72 -133 -151 -233.5t-114.5 -145.5 t-35.5 -81q0 -28 -14 -48.5t-54 -52.5q-129 -105 -139 8q-4 52 32 102q21 30 127.5 152t182.5 204q19 19 74 119.5t63 104.5q21 14 29.5 41.5t-6.5 42.5q-36 38 -146 163.5t-190.5 209t-110.5 85.5q-41 6 -56.5 29t-13.5 74z" />
<glyph unicode="&#xc9;" horiz-adv-x="851" d="M22 341.5q6 71.5 15 123.5t11 62q15 47 28 218q6 107 3 163t-20 136l-35 167q-4 24 2 36.5t29 26.5q25 17 30.5 30.5t2 24.5t7.5 32q36 70 183 -57q99 -82 100 -98q0 -8 23 -23.5t70.5 -49.5t87.5 -74q47 -44 101.5 -67.5t84.5 -13.5q18 7 54 -26q26 -24 30 -41t-2 -61 q-4 -47 -13 -57t-39 -12q-89 -4 -185 -89l-164 -141q-183 -161 -183 -215q0 -19 -29 -30.5t-45 -1.5q-15 8 -30 -22q-14 -30 -46 -39t-53 10q-24 17 -18 88.5zM127 1242q0 -6 4 -14q30 -72 37 -250.5t-14 -260.5q-12 -46 -7.5 -97.5t-7.5 -88.5q-10 -36 -7 -68t19 -32 q11 0 154.5 134.5t156.5 134.5q9 2 64.5 45.5t70.5 43.5q24 0 29 36q11 61 -63 113q-25 19 -176.5 147t-185.5 145q-74 38 -74 12z" />
<glyph unicode="&#xd1;" horiz-adv-x="1157" d="M27 919q-13 35 0 58t51 65q53 57 102.5 91t77.5 59l115 112q79 72 100 127q26 58 49.5 82.5t53.5 16.5q30 -9 40 -20.5t18 -52.5q7 -27 -6.5 -48t-74.5 -80q-93 -87 -82 -103q6 -13 117.5 -12t428.5 14q42 2 60 -5.5t36 -32.5q28 -38 17.5 -79.5t-55.5 -64.5 q-25 -14 -38.5 -12t-44.5 23q-32 23 -80.5 27.5t-251.5 4.5q-173 0 -244.5 -7t-109.5 -24.5t-78 -65.5q-43 -51 -46 -72.5t29 -48.5q24 -18 75.5 -23.5t257.5 -3.5q203 0 291.5 7.5t215.5 36.5q54 12 77.5 -35.5t-17.5 -89.5q-20 -18 -73 -23.5t-261 -5.5q-376 -2 -385 -11 q-2 -2 -2 -6q0 -12 67 -38q129 -51 115 -166q-7 -53 -24 -66.5t-69 -5.5q-85 14 -127 124q-14 41 -167 180q-78 70 -111.5 104.5t-46.5 69.5z" />
<glyph unicode="&#xd4;" horiz-adv-x="1191" d="M21 602q0 44 86.5 65t180.5 19t145 -15q58 -15 135 -15q331 0 422 21q72 16 109 -31q32 -42 -10 -72q-11 -6 -28 -11q-55 -6 -64.5 -6t-118 6.5t-228.5 8.5q-232 4 -262 18q-32 17 -142.5 9.5t-150.5 -27.5q-40 -19 -57 -13t-17 43zM157 918q-19 20 4 56q30 47 83.5 95.5 t71.5 48.5q28 0 110 80q77 74 136.5 118.5t156.5 98.5q32 17 59 39.5t42 31t36 3.5q26 -2 33 -11.5t7 -42.5q0 -36 -8 -46t-42 -18q-45 -8 -112.5 -51.5t-193.5 -146.5q-192 -154 -103 -156q14 0 38 2q38 6 81 16.5t62 14t62 6.5t77 -7q68 -9 80.5 -7t40 9.5t72.5 7.5 q42 0 75.5 9.5t43 18t29.5 9.5t39 -13q34 -24 34 -48.5t-36 -58.5q-57 -56 -93 -20q-8 10 -39 13t-90 0t-122 -8t-170.5 -15t-202.5 -16q-135 -6 -148 -21q-17 -16 -57 -13.5t-56 22.5zM574 -377.5q0 14.5 16 14.5t15.5 -14.5t-17.5 -14.5q-14 0 -14 14.5z" />
<glyph unicode="&#xd9;" horiz-adv-x="1743" d="M21.5 -377.5q-0.5 14.5 21.5 14.5t22.5 -14.5t-23.5 -14.5q-20 0 -20.5 14.5zM95 -377.5q0 14.5 16 14.5t15.5 -14.5t-17.5 -14.5q-14 0 -14 14.5zM185.5 -377.5q-0.5 14.5 14.5 14.5t15 -14.5t-14 -14.5q-15 0 -15.5 14.5zM245 -377.5q0 14.5 15.5 14.5t15.5 -14.5 t-16 -14.5q-15 0 -15 14.5zM534 1131l25 40l228 2q120 0 208 5t114 8.5t47 1.5t53 -15q74 -32 69 -11q-6 32 -131 100q-130 70 -78 135q24 27 64 20.5t67 -44.5q34 -44 188 -153t195 -158.5t86 -69.5q60 -36 55 -74t-39.5 -67.5t-64.5 -29.5q-20 0 -34 -24.5t-33 -56 t-47 -46.5q-97 -50 -158 -190q-36 -81 -61 -101.5t-74 -10.5q-52 11 -61 23q-19 30 52.5 128.5t109.5 98.5q13 0 28 23t6 31q-4 4 -49 -3t-92 -13.5t-84 4.5q-38 14 -216 18q-122 5 -161 -0.5t-88 -30.5q-48 -26 -62 -26.5t-37 19.5q-28 21 -23.5 55t13 54t12.5 24 q13 13 331 8q21 0 60 -2q314 -4 376 0.5t117 31.5q6 4 8 7q79 40 79 54q0 17 -35 45.5t-56 28.5q-19 0 -36 15t-42 15q-26 0 -64.5 22t-92.5 14q-57 -8 -121 15q-65 20 -221.5 14t-203.5 -34q-40 -24 -80 -8q-93 34 -46 108zM1622 -392.5q0 14.5 15 14.5t14.5 -14.5 t-14.5 -14.5q-15 0 -15 14.5z" />
<glyph unicode="&#xf4;" horiz-adv-x="980" d="M27.5 527q12.5 24 35.5 13q14 -4 165.5 17t168.5 15q6 -7 17.5 -3.5t18 8.5t44.5 11.5t97 6.5q118 2 165.5 7.5t81.5 19.5q84 36 125 -18q25 -36 10.5 -66.5t-58.5 -33.5q-34 -2 -80 -7.5t-77.5 -6.5t-143.5 5q-56 5 -144 -3.5t-149 -16.5t-70 -4q-8 6 -71 -18 q-70 -26 -96.5 -22t-38.5 40q-13 32 -0.5 56zM44 1372q0 15 30 51q68 87 141 -12q34 -44 96 -68.5t90 -42.5q38 -26 133.5 -48t113.5 -32q107 -59 189 -47q43 6 54.5 0t28.5 -46q18 -36 18 -52t-14 -44q-17 -30 -36 -35.5t-72 -22.5t-124 -66q-86 -56 -151.5 -85 t-78.5 -39.5t-48.5 -27t-107.5 -69.5q-53 -40 -78 -51t-67 -7q-45 2 -56.5 11t-13.5 36q-4 34 18 67t52 33q14 0 33 8t60.5 24t95.5 28q49 13 94 35t70.5 38t29.5 16q14 0 100 62.5t86 72.5q0 18 -70 49t-133 41q-78 13 -185.5 68t-170.5 59q-59 4 -95 44q-32 37 -32 52z " />
<glyph unicode="&#xf7;" horiz-adv-x="1145" d="M21 658l7 49l111 4q72 4 151 18t193 14q97 0 157 8t168 34q74 18 163.5 17t119.5 -19q30 -19 34 -48.5t-22 -48.5q-16 -14 -106 -17t-128 10q-14 4 -39 -5.5t-109 -21.5t-224 -12q-48 2 -220 -21.5t-184 -32.5q-15 -8 -46 9t-26 63zM334 1095q2 70 66.5 115.5t126.5 39.5 q36 -4 52 -17t31.5 -47t31.5 -55q14 -19 16 -60q2 -38 -47.5 -85.5t-91.5 -47.5q-38 0 -111.5 62.5t-73.5 94.5zM336 384q-2 72 48 93q47 18 122.5 7t125.5 -45q49 -34 58.5 -68.5t-11.5 -94.5q-30 -72 -131 -80.5t-158 57.5q-52 59 -54 131z" />
<glyph unicode="&#x3be;" horiz-adv-x="752" d="M21 713q0 30 26.5 61t47.5 31q28 0 47 22.5t84 53.5t78 22q12 -8 32 15q10 12 6 20t-28 16q-40 16 -61 16q-40 0 -99 35t-70 64q-25 57 -19.5 102.5t22 70t35.5 47.5t19 36q0 20 194 131.5t230 111.5q17 0 32 14t25 27t32.5 16t52.5 -19q40 -30 16.5 -78.5t-79.5 -48.5 q-26 0 -156 -60t-136 -60q-23 0 -72.5 -52.5t-74.5 -104.5l-36 -73l32 -26q57 -42 219 -69q30 -4 63.5 6.5t55.5 21.5t44.5 9t36.5 -27q21 -38 1.5 -64t-94.5 -60q-291 -135 -350 -190q-18 -20 -18 -28t20 -34q30 -31 93 -69q42 -25 68.5 -30.5t83.5 1.5q24 2 42.5 3 t32.5 -2t23 -6.5t13.5 -11t7.5 -13.5t0 -18.5t-5 -21.5t-9.5 -26t-12.5 -27t-16 -29q-19 -40 -30 -63t-25 -62.5t-23 -73.5q-12 -72 -31.5 -96t-56.5 -20q-36 6 -50 54t10 77q23 26 60.5 111.5t29.5 91.5q-10 4 -57 14q-87 21 -196.5 115t-109.5 147z" />
<glyph unicode="&#x3c1;" horiz-adv-x="1184" d="M26 121.5q8 17.5 56 74.5q49 50 78.5 101t42 78.5t23.5 33.5q12 8 12 36q0 21 67.5 157.5t67.5 150.5q0 34 162.5 214t192.5 182q19 0 31 20q12 21 54.5 45t68.5 24q16 0 28 14t19 24t30.5 5t63.5 -35q48 -38 74 -37.5t50 -37.5q15 -24 16 -52t-5 -56.5t-16.5 -91 t-14.5 -129.5q-6 -97 -40 -148.5t-137 -119.5q-137 -91 -239.5 -94t-189.5 81q-103 99 -19 167q42 34 69.5 31.5t27.5 -36.5q0 -30 14.5 -46.5t6.5 -34.5q-8 -30 20 -44t83 -8q57 6 98.5 25t106.5 67q57 42 79 89.5t24 126.5q0 70 15 78q21 13 15 62t-32 80q-30 42 -62.5 43 t-97.5 -36q-94 -55 -171.5 -123t-122 -123.5t-74.5 -104t-46 -76t-22 -27.5q-13 0 -13 -27q0 -21 -39 -86t-45 -85q-6 -21 -43.5 -92t-37.5 -81q0 -11 -45 -93t-45 -110q0 -34 -24 -65q-14 -21 -25 -24.5t-34 6.5q-36 17 -52 60q-12 30 -4 47.5z" />
<glyph unicode="&#x3c3;" horiz-adv-x="1184" d="M23 742q3 21 30 79q60 127 115.5 197.5t93.5 70.5q27 0 107 42q44 24 180.5 36t253.5 4q95 -6 130.5 -3t56.5 18q54 31 97.5 21.5t65.5 -42t5 -58.5q-13 -18 -51 -23.5t-211 -8.5q-78 0 -97.5 -5t-19.5 -24q0 -27 44 -84q32 -38 37 -63.5t3 -99.5q-6 -109 -43 -174.5 t-143 -143.5q-99 -76 -149.5 -82.5t-124.5 42.5q-49 32 -112 51t-106.5 27t-86.5 47.5t-66 112.5q-12 42 -9 63zM121 713q14 -26 14 -53q0 -20 56 -52t105 -36q23 -4 75.5 -26.5t117.5 -32.5q59 -6 78 1t77 60q68 63 94.5 116t10.5 87q-17 28 -6 60q14 45 -40.5 104 t-115 95.5t-72.5 36.5q-78 -4 -171 -43.5t-139 -89.5q-42 -44 -71 -120.5t-13 -106.5z" />
<glyph unicode="&#x2000;" horiz-adv-x="844" />
<glyph unicode="&#x2001;" horiz-adv-x="1689" />
<glyph unicode="&#x2002;" horiz-adv-x="844" />
<glyph unicode="&#x2003;" horiz-adv-x="1689" />
<glyph unicode="&#x2004;" horiz-adv-x="563" />
<glyph unicode="&#x2005;" horiz-adv-x="422" />
<glyph unicode="&#x2006;" horiz-adv-x="281" />
<glyph unicode="&#x2007;" horiz-adv-x="281" />
<glyph unicode="&#x2008;" horiz-adv-x="211" />
<glyph unicode="&#x2009;" horiz-adv-x="337" />
<glyph unicode="&#x200a;" horiz-adv-x="93" />
<glyph unicode="&#x2010;" d="M21.5 525.5q-0.5 8.5 18.5 27.5q21 24 93 24.5t138.5 -4.5t122.5 15q39 17 86 13t73 -27q30 -30 12 -101q-12 -55 -42 -53q-10 2 -21 11q-24 18 -228 24q-139 4 -177 11t-57 27q-18 24 -18.5 32.5z" />
<glyph unicode="&#x2011;" d="M21.5 525.5q-0.5 8.5 18.5 27.5q21 24 93 24.5t138.5 -4.5t122.5 15q39 17 86 13t73 -27q30 -30 12 -101q-12 -55 -42 -53q-10 2 -21 11q-24 18 -228 24q-139 4 -177 11t-57 27q-18 24 -18.5 32.5z" />
<glyph unicode="&#x2012;" d="M21.5 525.5q-0.5 8.5 18.5 27.5q21 24 93 24.5t138.5 -4.5t122.5 15q39 17 86 13t73 -27q30 -30 12 -101q-12 -55 -42 -53q-10 2 -21 11q-24 18 -228 24q-139 4 -177 11t-57 27q-18 24 -18.5 32.5z" />
<glyph unicode="&#x2013;" horiz-adv-x="1064" d="M21 525.5q-1 8.5 34 27.5q40 24 174 24.5t257.5 -4.5t227.5 15q73 17 160.5 13t135.5 -27q56 -30 22 -101q-22 -55 -78 -53q-18 2 -39 11q-44 18 -424 24q-259 4 -329.5 11t-106.5 27q-33 24 -34 32.5z" />
<glyph unicode="&#x2014;" horiz-adv-x="2089" d="M21 525.5q-2 8.5 69 27.5q78 24 346 24.5t515.5 -4.5t455.5 15q146 17 320.5 13t271.5 -27q112 -30 45 -101q-45 -55 -156 -53q-38 2 -79 11q-89 18 -848 24q-518 4 -659 11t-212 27q-67 24 -69 32.5z" />
<glyph unicode="&#x201c;" horiz-adv-x="885" d="M24 1103q-9 117 105 230q88 88 113.5 109.5t41.5 21.5q26 0 34 15q17 28 65 3t48 -63q0 -23 -34 -56.5t-57.5 -33.5t-116 -81.5t-92.5 -129.5q0 -45 38 -59q38 -15 56 -52t-4 -59q-38 -47 -107 -2q-84 52 -90 157zM473 1149q0 47 9 71t41 60q51 57 99 93q32 24 68 53 t50.5 41t33.5 20.5t32 3t31 -22.5q47 -42 18.5 -90.5t-98.5 -48.5q-40 0 -62 -11.5t-67 -55.5q-44 -45 -53.5 -65t-2.5 -52q10 -46 25 -60t63 -18q49 -4 68 -18.5t15 -42.5q-7 -30 -75.5 -35t-114.5 21q-44 24 -62 58.5t-18 98.5z" />
<glyph unicode="&#x201e;" horiz-adv-x="870" d="M21 -145q4 42 42 58.5t80 -4.5q24 -12 38.5 -11t44 19t39 36.5t15.5 72.5q6 42 3 71.5t-9 38.5t-10 23t0 24l14 47q8 23 39 19t59 -34q24 -25 26.5 -47.5t-3.5 -93.5q-9 -86 -31 -125.5t-119 -140.5q-40 -42 -60 -51.5t-62 -7.5q-115 6 -106 106zM564.5 -64.5 q3.5 28.5 75.5 60.5q78 36 89.5 88.5t-47.5 107.5q-30 27 -34 61t16 55q30 30 66.5 12t68.5 -75q57 -105 50 -160t-96 -150q-26 -28 -26.5 -45t10 -21t10.5 -18t-21 -36l-30 -30l-72 66q-63 56 -59.5 84.5z" />
<glyph unicode="&#x2022;" horiz-adv-x="839" d="M25 935.5q15 134.5 53 193.5q15 24 36 29.5t89 5.5q65 0 90 -6t51 -29q40 -38 48.5 -85.5t-4.5 -155.5q-12 -103 -40 -157t-84 -83q-30 -15 -49 -13t-78 27q-82 36 -99 79q-28 60 -13 194.5zM771.5 -377.5q0.5 14.5 24 14.5t23.5 -14.5t-24 -14.5t-23.5 14.5z" />
<glyph unicode="&#x202f;" horiz-adv-x="337" />
<glyph unicode="&#x205f;" horiz-adv-x="422" />
<glyph unicode="&#x2190;" horiz-adv-x="1842" d="M26 749q-15 20 12 90t49 70q10 0 73.5 59t138 128t106.5 87q30 15 53 34t33.5 28t21.5 9q14 0 40.5 -26t26.5 -42q0 -19 -28.5 -41t-62.5 -32q-36 -8 -84.5 -53t-56.5 -45q-10 0 -75.5 -71t-65.5 -81q0 -16 19 -24t64.5 -7t93 5.5t129.5 9.5t149 7q115 4 223.5 17t159 21 t131 12.5t136.5 -10.5q63 -10 99 -8t97 17q167 40 224 41.5t80 -39.5q23 -36 -3 -57t-92 -21q-61 -2 -96 -12t-67.5 -13t-194.5 6q-205 6 -281 1.5t-210 -21t-226 -21.5q-139 -6 -250.5 -25t-111.5 -35q0 -15 57 -63.5t76 -48.5q8 0 35 -28.5t61.5 -65t60.5 -50.5 q16 -8 33 -27t23 -34q11 -25 6.5 -39.5t-26.5 -36.5l-36 -38l-43 34q-42 32 -60 74q-17 44 -158.5 168.5t-205.5 152.5q-70 29 -77 44z" />
<glyph unicode="&#x2192;" horiz-adv-x="1822" d="M21 732q0 68 23 83q30 16 211 12q888 -21 993 29q34 14 58.5 17t68.5 -8q72 -16 80 -9q5 6 -20.5 34t-78 73t-122.5 100t-87 92t13 67q18 16 49 16q24 0 61.5 -30.5t37.5 -49.5q0 -15 96 -101.5t132 -106.5q10 -4 70.5 -47.5t127.5 -105t67 -90.5q0 -30 -37 -61.5 t-93 -50.5q-57 -18 -147.5 -80t-137.5 -112q-40 -45 -73 -106t-60 -83t-91 -22q-34 0 -49.5 31.5t-3.5 76.5q9 32 27 45t37 15.5t47 19.5t52 55q36 56 55 56q14 0 104 67.5t99 67.5q8 0 36 22.5t50.5 45.5t18.5 27q-9 8 -55 -14q-32 -15 -46.5 -15t-44.5 15q-34 16 -207 25 t-195 -9q-53 -10 -245 -5t-433.5 0t-277.5 -28q-36 -24 -72 -13q-24 4 -31 16t-7 39z" />
<glyph unicode="&#x21d0;" horiz-adv-x="1364" d="M21 -407q0 15 29.5 15t29.5 -15t-30 -15q-29 0 -29 15zM196 888q-13 36 1 59t50 63q53 59 103.5 93t75.5 59l118 112q76 72 100 127q18 46 40.5 72.5t41.5 30.5t35 -4.5t27 -27.5t17 -44q7 -28 -6.5 -48.5t-75.5 -79.5q-93 -87 -81 -104q4 -8 29 -11.5t73.5 -2.5t92 3.5 t117 6.5t113.5 6t58 -5t37 -33q28 -36 20.5 -75t-47.5 -66q-28 -17 -41.5 -16t-53.5 24q-40 21 -85.5 26.5t-191.5 5.5q-189 0 -250.5 -17t-115.5 -82q-43 -51 -45 -71t30 -47q21 -21 73 -25.5t252 -4.5q195 2 291.5 10.5t221.5 36.5q56 12 78 -36t-20 -93 q-18 -18 -56.5 -23t-170.5 -5q-475 3 -488 -16q-4 -8 23 -22q14 -8 40 -16q70 -28 96.5 -68t18.5 -103l-9 -68l-66 4q-98 6 -143 123q-16 38 -169 177q-78 70 -111.5 104.5t-46.5 70.5zM1244 -415q-6 2 4 2q11 2 45 2q52 0 51 -4q-3 -1 -11 -3q-47 -6 -89 3z" />
<glyph unicode="&#x21d2;" horiz-adv-x="1655" d="M21.5 -392.5q-0.5 14.5 14 14.5t14.5 -14.5t-14 -14.5t-14.5 14.5zM431 1097q-9 38 14 72q16 26 47 30.5t185 2.5q116 -2 202.5 3.5t116 11t58.5 3t64 -17.5q74 -30 72 -10q-4 30 -133 99q-131 70 -79 135q24 27 65.5 21t67.5 -44q32 -44 187 -153t196.5 -158.5 t83.5 -70.5q61 -36 56.5 -74t-40.5 -67.5t-62 -29.5q-21 0 -36 -24.5t-33 -55.5t-46 -47q-97 -50 -159 -189q-34 -81 -59.5 -101t-75.5 -11q-53 11 -62 23q-17 30 54 128t109 98q14 0 29 22t7 30q-4 4 -46.5 -2t-89 -12.5t-90.5 4.5q-48 14 -219 21q-119 2 -158 -3t-87 -29 q-51 -27 -65 -28t-36 20q-28 21 -24 55t14 54l12 24q14 15 332 8h58q316 -6 377.5 -2t115.5 34q7 2 11 4q78 43 78 55q0 16 -36 45t-57 29q-18 0 -34 14.5t-44 14.5q-24 0 -63.5 22t-90.5 14q-57 -8 -124 15q-63 21 -219.5 15t-198.5 -32q-38 -26 -86.5 -14t-58.5 48z" />
<glyph unicode="&#x2200;" horiz-adv-x="1105" d="M57 1618q32 32 54 37t64 -12q51 -19 71 -103.5t25 -172t18 -103.5q24 -26 105 -43t182 -15q120 2 151.5 14t51.5 58q12 32 25 40.5t40 6.5q46 -2 44 -15q-2 -8 -29 -15q-28 -9 -30 -29q0 -12 15 -12q12 0 14.5 -27t-4 -63.5t-19.5 -64.5q-30 -59 -79 -142.5t-81.5 -160.5 t-64.5 -212q-4 -16 -25.5 -43.5t-14.5 -85.5q6 -40 0.5 -62t-24.5 -51q-59 -82 -149 -6q-34 30 -44.5 73.5t12.5 59.5q20 8 9 67t-33.5 120t-43.5 128.5t-21 95.5q0 20 -19 67t-47.5 128t-46.5 167q-19 85 -34 118t-51 68q-102 104 -21 190zM346 1040q0 -19 8.5 -37 t17 -48.5t8.5 -60.5q0 -24 8.5 -41.5t27.5 -56.5t35 -89q32 -87 46 -92t47 102q34 112 51 147.5t73 120.5q28 44 24 65.5t-44 29.5q-59 13 -163.5 9t-124.5 -20q-14 -10 -14 -29zM821 1373q-2 8 6 20q17 17 17 80q0 52 23 79.5t23 59.5q0 40 17 57q7 8 52 14t82 6t44 -6 l-59 -67q-58 -68 -52 -93q7 -20 -37.5 -83t-73.5 -73q-32 -13 -42 6z" />
<glyph unicode="&#x2203;" horiz-adv-x="1520" d="M21.5 -407q-0.5 15 14 15t14.5 -15t-14 -15t-14.5 15zM348 1495.5q2 44.5 10 58.5q15 26 113 -2q52 -10 137.5 -7t164.5 12t152 -8t100 -64q24 -44 11 -88q-6 -26 -4 -243.5t10 -288.5q4 -38 -10.5 -170t-25.5 -138q-14 -10 -11 -63t22 -100q14 -38 13 -50t-22 -34 q-25 -26 -45.5 -21t-34.5 -5q-10 -8 -92.5 -10t-185 -21t-165.5 -72q-28 -23 -41 -26.5t-37 8.5q-34 18 -44 36q-13 18 -11 63.5t17 59.5q16 17 70 18.5t72 -16.5q6 -6 17.5 -7t33.5 3t44 10t60.5 14t72.5 12q82 17 109.5 35t39.5 66q61 224 46 342l-8 72h-141 q-143 0 -249 -10l-108 -13l-10 48q-12 57 12.5 74t96.5 -2q72 -14 85.5 -10t47.5 15.5t83 11.5q60 0 118 17q40 10 49.5 23t11.5 55q4 133 -5.5 192t-43.5 101l-46 55l-232 -2q-231 -3 -241 13q-8 12 -6 56.5zM987 -415q-11 4 5 6h8q17 0 19 -6q-11 -10 -32 0zM1202 -415 q-6 2 2 4q6 2 22 2q26 -5 24 -9q-25 -10 -48 3zM1464 -415q-9 4 6 6h9q17 0 19 -6q-11 -10 -34 0z" />
<glyph unicode="&#x2208;" horiz-adv-x="866" d="M21 666q4 65 23 120.5t37 91.5t18 54q0 26 24 104q25 89 100 159.5t184 108.5q54 19 161 21t160 -15q91 -32 112 -65.5t-28 -77.5q-28 -28 -50.5 -26t-101.5 40q-61 28 -169 23q-74 -2 -100 -11.5t-77 -53.5q-44 -36 -64 -65.5t-35 -81.5q-32 -101 -6 -102q12 0 36 15 q28 19 69.5 17t79 -15t87.5 -12t93 29q50 32 72 29t50 -44q51 -70 9.5 -124.5t-121.5 -27.5q-8 4 -33.5 9.5t-66.5 14t-83.5 5.5t-66.5 -19q-34 -23 -81.5 -17.5t-58.5 33.5q-17 40 -33 -16q-30 -88 -7 -177q13 -44 40 -63q58 -38 224 -38t274 40q53 21 94 13t48.5 -36.5 t-19.5 -66.5q-19 -24 -33.5 -31t-31 -4t-68.5 2t-119 -12q-90 -14 -230.5 -7t-191.5 31q-44 17 -84 86q-26 42 -32 72t-4 90z" />
<glyph unicode="&#x220b;" horiz-adv-x="866" d="M40.5 1244.5q20.5 33.5 110.5 65.5q53 17 160 15t162 -21q109 -38 184 -108.5t100 -159.5q24 -78 24 -104q0 -18 18 -54t36.5 -91t23.5 -121q2 -60 -4.5 -90t-31.5 -72q-40 -70 -84 -86q-51 -24 -191.5 -31t-231.5 7q-68 11 -119.5 12t-68 -2t-30.5 4t-33 31 q-28 38 -20 66.5t49 37t93 -13.5q108 -40 273.5 -40t225.5 38q28 19 40 63q24 89 -7 177q-17 55 -33 16q-10 -28 -58 -33t-82 17q-26 15 -67.5 18.5t-83 -5t-66.5 -14t-33 -9.5q-81 -28 -122 27t9 125q28 41 50 44t73 -29q42 -28 92.5 -29t87.5 12t79.5 15t68.5 -17 q24 -14 37 -15q25 0 -7 102q-14 52 -34 81.5t-65 65.5q-50 44 -76.5 53.5t-100.5 11.5q-107 4 -169 -23q-78 -38 -101 -40t-50 26q-48 44 -27.5 77.5z" />
<glyph unicode="&#x220f;" horiz-adv-x="1520" d="M24 1477.5q14 28.5 36 51.5t27 23q2 0 50 -35q38 -26 81.5 -30t256.5 0q116 2 205.5 6.5t118 6.5t47.5 1t36 -5q30 -9 136.5 -1.5t213.5 22.5q122 19 172.5 18t72.5 -25q28 -30 23 -79q-4 -32 -12.5 -42t-34.5 -14q-25 -2 -68 13t-75 27.5t-35 10t1 -54t4 -137 t-12 -151.5q-24 -117 -52 -353.5t-43 -282.5q-12 -46 0.5 -108.5t-0.5 -93.5q-8 -26 -21 -32t-43 -4q-34 4 -42 14.5t-14 54.5q-7 49 7.5 103t40.5 138.5t34 182.5q10 115 24 244t19 183t5 110t-12 96l-19 66l-329 -4q-112 0 -172.5 -1t-97 -4.5t-47.5 -8t-9 -10.5 q5 -40 5 -83.5t-3.5 -162.5t-1.5 -203q3 -517 -2 -658l-4 -67h-58q-43 0 -53.5 9t-19.5 58q-10 40 -2.5 77t20 57t23 87.5t8.5 166.5q-2 125 -1 232.5t-2 217t-16 172.5q-12 74 -21 88.5t-33 12.5q-47 -4 -164 14t-134 30q-28 28 -14 56.5z" />
<glyph unicode="&#x2211;" horiz-adv-x="1473" d="M21 4q0 83 17 83q8 0 139 89.5t163 89.5q8 0 77.5 45t79.5 45q7 0 19.5 13t44 37.5t71.5 44.5q63 34 189.5 117.5t170.5 102.5q46 20 0 48q-12 8 -44 24q-63 32 -94 52q-44 30 -123 57.5t-121 27.5q-47 0 -137.5 47t-158.5 107q-54 51 -62.5 67.5t-0.5 69.5 q9 57 46 111.5t76 69.5q30 11 118 55q63 30 172 55t442 88q76 13 193 14q80 0 102.5 -7t37.5 -30t15 -33.5t-14 -25.5q-17 -19 -72 -16t-117 12t-135 -7q-50 -8 -108.5 -15t-87.5 -11.5t-37 -13.5q-15 -14 -63.5 -14t-164.5 -30q-72 -19 -111 -39t-88 -64q-82 -72 -88 -106 q-9 -53 74.5 -112.5t180.5 -73.5q78 -8 182.5 -62.5t193.5 -99t143 -35.5q59 8 93 -20q24 -18 27 -30t-11 -37q-18 -38 -48 -38q-32 0 -109.5 -33t-118.5 -64q-44 -32 -185 -109t-190 -114q-25 -17 -146 -85t-225.5 -132t-113.5 -87q-2 -6 7.5 -12t33.5 -10t50.5 -7 t76.5 -10t91 -14q167 -25 310.5 -14t231 31t101 33t115 13t137.5 -14q32 -10 39 -42t-18 -43q-11 -2 -183 -10.5t-197 -21.5q-54 -29 -297 -33.5t-346 23.5q-87 21 -165 21h-80v82z" />
<glyph unicode="&#x221e;" horiz-adv-x="1315" d="M24 431q-4 48 3 66t47 56q34 32 46.5 52.5t12.5 50.5q0 49 37 129t96 161q54 74 83 92.5t104 26.5q49 6 72 1t63 -32q26 -18 49 -46t37 -53.5t26.5 -47.5t21 -36t14.5 -12q15 5 61 89q30 59 56.5 82t102.5 63q105 57 158 53.5t112 -71.5q36 -40 47 -67.5t18 -84.5 q12 -143 -15 -291q-12 -65 -70 -125q-52 -52 -93.5 -69t-114.5 -17q-65 0 -101 16t-85 68q-36 38 -60 44.5t-39 -6t-53 -49.5t-80 -63q-38 -24 -62.5 -47.5t-32.5 -32.5t-33.5 -15t-80.5 -8q-83 0 -118.5 -19t-93.5 -13q-65 8 -96 43t-39 112zM209 426q6 -11 42 -25 q30 -11 54 -9t83 26q77 28 128.5 60.5t109.5 89.5q42 42 39 78t-59 162q-55 116 -93 132q-42 15 -62 11.5t-71 -37.5q-61 -43 -89.5 -88t-54.5 -132q-19 -74 -17 -132t10.5 -69.5t-8.5 -37.5q-18 -18 -12 -29zM813.5 722.5q-5.5 -94.5 120.5 -182.5q44 -34 76 -32.5t63 34.5 q36 38 54 38q24 0 44.5 33t28.5 77q10 55 -8 183q-11 87 -20 110t-33 34q-50 18 -84 4.5t-99 -73.5q-137 -131 -142.5 -225.5z" />
<glyph unicode="&#x2245;" horiz-adv-x="1351" d="M21 954q0 20 10.5 31t62 19t129 11.5t239.5 7.5q352 9 390 30q101 50 156 -32q17 -28 17 -38.5t-17 -34.5q-14 -24 -28 -29t-44 -1q-46 8 -60 18q-19 15 -796 -16q-40 -2 -49.5 3t-9.5 31zM44 521q0 28 15 35t82 9q34 3 85.5 16.5t208.5 4.5q227 -10 372 -4t159 30t72 -4 q61 -30 23 -101q-10 -19 -121 -21.5t-440 11.5q-152 7 -211 5t-116 -19q-70 -18 -99.5 -10t-29.5 48zM198.5 1173.5q0.5 28.5 17 55.5t34.5 57t18 49q0 24 31 69t45 45q8 0 82 51.5t83 51.5q24 0 94 -56.5t125 -120.5q68 -76 109 -88.5t85 29.5q20 19 27 42t7 83 q0 91 18 109q19 19 44.5 17.5t42.5 -23.5q18 -21 1.5 -119t-45.5 -141q-26 -38 -36 -64q-9 -26 -49 -41t-95 -15q-38 0 -59 14t-67 66q-70 81 -69 98q0 10 -34 38.5t-83.5 43.5t-106.5 -25q-26 -19 -66 -90t-40 -98q0 -25 -27 -63.5t-57 -18.5q-30 16 -29.5 44.5zM1284 -407 q0 15 23.5 15t24 -15t-23.5 -15t-24 15z" />
<glyph unicode="&#x2248;" horiz-adv-x="1550" d="M23 871.5q-4 8.5 5 40.5q8 27 12 46q8 42 23 42t15 27q0 26 39.5 96.5t51.5 70.5q8 0 47 37t58 37q28 0 36 14q10 17 68.5 21.5t94.5 -10.5q34 -15 78 -53t75.5 -65.5t65.5 -38.5t63.5 25.5t54.5 127.5q27 96 53 134q19 32 46 37.5t49 -15.5q24 -18 17 -52t-23 -61.5 t-34 -59.5t-18 -46q0 -74 -76.5 -150t-150.5 -76q-39 0 -69 53q-32 50 -96.5 95.5t-102.5 45.5q-91 0 -180.5 -84.5t-115.5 -191.5q-6 -26 -16.5 -37.5t-35.5 -13.5q-30 -4 -34 4.5zM95 455q-2 24 8.5 47t23 51.5t12.5 43.5q0 39 40 112.5t95 132.5q61 67 85.5 75.5 t105.5 -8.5q56 -12 95 -43t157 -164q40 -44 54 -50t41 6q56 30 93 83.5t47 105t7 95t-19 56.5q-18 17 -26.5 73t6.5 83q12 27 35 23t47 -38q40 -61 36 -318q-2 -74 -98 -179.5t-161 -105.5q-36 0 -69 21t-33 45q0 16 -95 117q-57 61 -84 81.5t-55 20.5q-40 0 -65.5 -23 t-37.5 -23q-28 0 -70 -80.5t-57 -158.5q-14 -81 -35 -109t-55 -9q-26 13 -28 37zM1036 -392.5q0 14.5 14.5 14.5t14.5 -14.5t-14 -14.5q-15 0 -15 14.5zM1500 -392.5q0 14.5 15 14.5t14.5 -14.5t-15.5 -14.5q-14 0 -14 14.5z" />
<glyph unicode="&#x2260;" horiz-adv-x="1490" d="M26 994q-11 44 5.5 66.5t59.5 17.5q36 -4 157 20.5t149 28.5q50 6 66 21.5t56 93.5q19 40 36 78.5t24 54t16 31t16 19t15 6t26 2.5q48 0 69.5 -15t15 -36t-20.5 -39t-28 -27q-26 -10 -66 -81t-30 -81q15 -15 81 -16t118 11q57 13 73 12t30 -22q24 -30 23 -70t-29 -54 q-28 -15 -64.5 -15t-51.5 17q-14 14 -130 17q-85 4 -105 -2.5t-46 -39.5q-18 -26 -48 -116.5t-34 -132.5q10 -7 72.5 -7t150 7.5t123.5 15.5q59 12 87.5 5t47.5 -38q8 -18 5 -30t-24 -34q-29 -30 -83 -34t-254 6q-113 5 -135.5 1.5t-35.5 -25.5q-17 -34 2 -89.5t-11 -102.5 q-27 -44 -70 -64q-28 -12 -40 -9t-33 22q-20 20 -23 36.5t8 63.5q10 38 14.5 78.5t2.5 68.5t-10 28q-12 0 -40 -24q-45 -34 -87 -19t-42 65q0 36 26.5 47.5t110.5 11.5q99 0 120 18q19 14 64.5 142.5t34.5 139.5q-4 6 -57 -6.5t-127.5 -31.5t-113.5 -25t-48.5 -1t-17.5 35z M1441 -392.5q0 14.5 14.5 14.5t14.5 -14.5t-15 -14.5q-14 0 -14 14.5z" />
<glyph unicode="&#x226a;" horiz-adv-x="1024" d="M21 660q0 24 46.5 61.5t73.5 37.5q12 0 19 4t5 12q-6 10 85 86.5t159 119.5q40 23 66.5 47.5t33 33.5t17 9t35.5 -12q30 -17 29 -53q0 -30 -49.5 -61t-127 -74.5t-119.5 -85.5q-43 -40 -56 -40q-14 0 -47.5 -34t-33.5 -51q0 -20 66 -51t111 -27q50 2 93.5 -9.5 t43.5 -28.5q4 -32 -1 -70.5t-17 -49.5q-8 -8 -67 13.5t-78 15.5q-38 -12 -162.5 77.5t-124.5 129.5zM544 759q0 26 38 73.5t60 47.5q12 0 84.5 59t94.5 59q28 0 47.5 -17t19.5 -40t-26.5 -49.5t-49.5 -26.5q-28 0 -80.5 -47.5t-52.5 -72.5q0 -36 52 -69.5t107.5 -33.5 t102 -22.5t58 -52t-11.5 -58.5q-15 -15 -31 -16.5t-31.5 6.5t-44.5 15t-61 7q-57 0 -166 79t-109 159z" />
<glyph unicode="&#x226b;" horiz-adv-x="1028" d="M22.5 880.5q-8.5 45.5 15.5 71.5q15 14 27.5 16t28 -6t33.5 -21t55 -29t82 -26q54 -13 101.5 -30t70.5 -26t33 -9q23 0 56.5 -42.5t33.5 -69.5q0 -38 -40 -67q-161 -119 -223 -187.5t-41 -102.5q9 -14 -18.5 -43t-53.5 -29q-30 0 -45 32t-10 70t33 59q23 18 58.5 73.5 t78.5 84.5q50 37 80 74q30 38 11.5 53t-121.5 41q-57 13 -97 27t-55 22.5t-28.5 13.5t-26.5 5q-30 0 -38.5 45.5zM428.5 985q-2.5 13 8.5 36q17 38 34 38q12 0 106 -60.5t111 -60.5q19 0 111.5 -45t152.5 -83q72 -49 52.5 -88.5t-156.5 -129.5q-38 -26 -51.5 -42t-13.5 -43 q0 -68 -101 -94q-30 -8 -53 18t-15 58q6 24 55.5 77.5t113.5 106.5q42 34 50.5 48.5t-2.5 27.5q-12 16 -91.5 58.5t-95.5 42.5q-21 0 -98 41t-97 63q-18 18 -20.5 31z" />
<glyph unicode="&#x22c0;" horiz-adv-x="1127" d="M21.5 698.5q-2.5 22.5 8 42.5t28.5 43.5t37 43.5t40.5 46t31.5 50q24 52 88 143l127 171q59 82 59 112t22 64.5t46 34.5q30 0 55.5 -19t25.5 -37q0 -19 97.5 -125t183.5 -181q47 -43 65 -79l49 -84q20 -40 45 -72.5t40 -49.5t26 -33t10 -29.5t-13 -32.5q-24 -36 -44 -36 q-28 0 -71.5 42t-43.5 70q0 18 -21 55.5t-52.5 83.5t-39.5 63q-15 27 -117 125.5t-147 129.5q-30 21 -38 21.5t-26 -25.5q-23 -34 -22.5 -46.5t-51.5 -74.5t-105.5 -144.5t-58 -141.5t-47.5 -117t-92 -70q-36 -11 -49.5 -9.5t-26.5 19.5q-16 24 -18.5 46.5z" />
<glyph unicode="&#x22c1;" horiz-adv-x="976" d="M26 1379q12 38 67 38q38 0 63 -33.5t25 -81.5q0 -34 22.5 -72t22.5 -53q2 -18 39 -57.5t37 -48.5q0 -12 67.5 -171t75.5 -168q8 -8 36 31.5t52 89.5t24 69q0 10 5.5 21t14.5 23t29 46t42 75l71 135q12 23 27 97t37 94q28 26 27.5 54.5t35.5 40.5q32 12 47.5 6t42 -40.5 t16.5 -63.5t-72 -110q-28 -36 -40.5 -59.5t-13.5 -30t-5 -14.5t-18 -17q-25 -20 -119 -227t-127 -258q-46 -65 -46 -108q0 -38 -24.5 -66.5t-58.5 -28.5q-44 0 -62 45.5t-34 133t-45 142.5q-29 58 -29 76q0 10 -6.5 19t-14 16t-17 28t-15.5 53q-8 63 -58 119 q-151 175 -121 256z" />
<glyph unicode="&#x22c2;" horiz-adv-x="1054" d="M22.5 419q-3.5 20 2 42t17 79t17.5 122q4 63 41 126.5t37 72.5q0 10 26.5 44.5t65.5 81t55 72.5q34 52 82.5 84t70.5 28q12 -2 54.5 -12t61.5 -13t56 -8t39 1q30 8 114 -37t118 -85q60 -70 87 -132t37 -151q6 -74 2 -116l-5 -52.5t16 -92.5q16 -72 15 -91t-20 -40 q-29 -34 -58.5 -27t-41.5 48q-13 46 -12 227q2 163 -14.5 222t-77.5 106l-103 80q-43 32 -88 27.5t-64 14.5q-50 47 -137 -1.5t-161 -158.5t-92 -224q-19 -118 -11.5 -176t5 -80t-38.5 -35q-25 -9 -39 -7t-35 22q-18 19 -21.5 39z" />
<glyph unicode="&#x22c3;" horiz-adv-x="1020" d="M22.5 1012.5q1.5 29.5 25.5 52.5q36 34 60.5 20t32.5 -70q26 -220 163 -373q90 -101 115.5 -118t91.5 -17q159 2 238.5 61.5t115.5 206.5q19 76 19 102t-17 77q-46 131 0 183q24 26 37.5 25.5t47.5 -27.5q32 -26 43 -85.5t-5 -103.5q-8 -28 -20 -136t-18 -139 q-6 -41 -46.5 -100.5t-84.5 -99.5q-36 -32 -93 -58.5t-72 -20.5q-18 7 -45 -0.5t-59.5 -11.5t-110.5 19q-89 29 -121 46q-42 21 -141 189.5t-99 217.5q0 20 -16 52t-29.5 55.5t-12 53z" />
<glyph unicode="&#x22c8;" horiz-adv-x="1598" d="M22 228.5q8 33.5 41 49.5q24 10 33 29.5t16 68.5q6 61 -5.5 130.5t-3.5 125.5q8 61 -3 91t-11 74q0 26 -12 93.5t-22.5 128.5t-9.5 119t20 77q26 26 48 19.5t106 -59.5q47 -30 91 -56t61 -36t42.5 -29.5t63.5 -55.5q52 -46 110.5 -81t85.5 -49t27 -22q0 -13 39 -49 q31 -34 58.5 -27t98.5 65q38 32 100.5 72.5t157.5 128.5q74 65 101 87t47.5 31.5t47.5 28.5q40 28 81.5 22.5t62.5 -43.5q12 -26 13 -40.5t-11 -38.5q-15 -28 -20.5 -130.5t12.5 -253.5t66 -260q13 -30 22 -190q6 -133 -9 -166t-84 -47q-30 -6 -42.5 -1t-27.5 33 q-24 46 -73 88.5t-140 115t-175 159.5q-215 215 -255 185l-116 -78q-63 -45 -134 -103.5t-134 -92.5q-80 -42 -112 -102q-40 -74 -110.5 -94.5t-121.5 25.5q-28 24 -20 57.5zM165 1042q-2 -17 4 -94q8 -89 24 -149t16 -133q2 -78 11.5 -163t19.5 -94q10 -12 81 19t118 69 q46 37 112.5 74t106.5 71l51 44l-72 67q-74 67 -124 91q-30 14 -157.5 114.5t-168.5 100.5q-20 0 -22 -17zM891.5 716.5q-13.5 -22.5 26.5 -52.5q30 -23 98.5 -86t126 -113t77.5 -56q27 -8 102 -90.5t83 -82.5q12 0 30 32q14 32 1 116.5t-28 156t-20 81.5q-19 49 -13 359 q2 98 -25 97q-14 -2 -36 -27q-25 -30 -136 -117.5t-180 -134.5q-93 -60 -106.5 -82.5z" />
<glyph unicode="&#x22c9;" horiz-adv-x="1260" d="M22 282.5q-8 37.5 41 105.5q14 21 9.5 59t-13.5 79.5t4 103.5q16 72 13.5 235.5t-23.5 273.5q-19 107 -16 141t33 34q21 0 55 10.5t50.5 15t45.5 -6.5l54 -34q54 -33 110 -68t122.5 -86.5t104.5 -91.5q36 -38 54 -38q11 0 37.5 24t87.5 82t131 111q119 95 145 135 q30 44 72 32.5t42 -64.5q0 -32 -132 -124q-97 -68 -199.5 -165.5t-102.5 -125.5q0 -15 159 -153.5t214 -171.5q46 -30 83 -68t37 -56q0 -28 -26 -49t-60 -21q-41 0 -79.5 29t-49.5 65q-4 21 -29.5 47t-83.5 75t-107 98q-8 8 -22 24q-32 33 -44.5 45.5t-31.5 24.5t-25.5 12 t-24 -9t-28.5 -20l-39 -39l-18 -21q-57 -60 -105.5 -119.5t-88.5 -102.5t-112 -105q-117 -97 -121 -129q-2 -18 -13 -24.5t-41 -6.5q-61 0 -69 37.5zM159 1202q-9 -42 14 -479q2 -52 4 -100.5t2 -73t1 -43.5t2 -24t5 -5q17 0 91 68.5t89 98.5q23 44 137 153l114 110l-84 78 q-99 90 -184.5 149.5t-119.5 74.5t-45 15q-23 0 -26 -22z" />
<glyph unicode="&#x22ca;" horiz-adv-x="1224" d="M26.5 511q13.5 40 41.5 40q16 0 66.5 41.5t118 97t112.5 77.5q29 15 59 64l27 49l-33 29q-24 19 -55 30t-97 67q-74 68 -112 79q-50 12 -87 43.5t-37 65.5q0 63 39.5 71.5t89.5 -43.5q32 -32 95.5 -69.5t131.5 -91.5q42 -36 60.5 -50.5t44.5 -25.5t36.5 -9t37.5 20.5 t46 39.5t64 67q126 139 237 215l157 110q40 29 53 30.5t45 -23.5q28 -21 29.5 -34t-13.5 -59q-18 -59 -26 -328l-8 -269q-4 -28 10 -131t22 -117q13 -14 21 -94q10 -95 -23.5 -117t-98.5 38q-46 47 -62 47t-16 21t-198 217t-232 208q-11 4 -41.5 -24t-94 -86.5 t-120.5 -100.5q-90 -75 -90 -109q0 -80 -110 -92q-46 -6 -60 -1t-26 31q-17 36 -3.5 76zM639.5 907q6.5 -15 66 -71.5t123 -104t105.5 -89.5q70 -72 87 -60q18 14 25 188q5 191 7 348q2 137 -14 156t-87 -40q-51 -42 -159.5 -147.5t-138.5 -140.5q-21 -24 -14.5 -39z" />
<glyph unicode="&#x25b3;" horiz-adv-x="1123" d="M22.5 105.5q3.5 53.5 36.5 86.5q38 34 38 60t49.5 125.5t77.5 210.5q31 121 62.5 193.5t42.5 112.5q4 21 31.5 89t50 144.5t22.5 142.5q0 42 8 62t30 39q56 46 109.5 20t53.5 -98q0 -30 24 -55t24 -38q0 -24 27 -81.5t54 -89.5q26 -32 52.5 -90.5t36.5 -73.5 q65 -84 133 -441q4 -18 41 -94.5t52 -93.5q45 -57 0 -149q-16 -39 -34.5 -56t-45.5 -23q-32 -8 -49 -4t-40 26q-27 26 -70.5 29.5t-252.5 3.5q-194 0 -240 -4t-50 -21q-7 -18 -13.5 -20t-31.5 18q-27 17 -37.5 14.5t-40.5 -29.5q-32 -32 -59 -30.5t-66 33.5 q-29 28 -25.5 81.5zM178 200.5q-3 -8.5 9 -33.5q13 -17 127 -16.5t471 18.5l143 8l-4 76q-4 63 -19 96t-21 82q-17 107 -38 179t-63 165q-59 128 -85.5 175.5t-57.5 85.5q-34 42 -34 76.5t-30 51.5q-19 10 -29.5 4t-29.5 -37q-32 -48 -32 -79t-14 -46q-17 -18 -53 -115.5 t-36 -129.5q0 -24 -13 -53t-36 -87t-39 -126q-21 -74 -44.5 -121t-35 -66t-11.5 -34q0 -21 -11 -43t-14 -30.5z" />
<glyph unicode="&#x25fc;" horiz-adv-x="1054" d="M0 0v1055h1055v-1055h-1055z" />
<glyph unicode="&#x27d5;" horiz-adv-x="1737" d="M21 245q0 49 33 64t151 25q53 2 77 4t55.5 9t43 11.5t27.5 22.5t18 29.5t6.5 46t3.5 61t-3 84.5q-5 195 -11 248q-34 257 -66 314q-14 26 -32 31t-90 1q-61 -4 -103 -13.5t-46.5 -12.5t-36.5 3q-16 6 -21.5 19.5t-2.5 51.5l6 62l82 -4q24 0 57.5 -2t45 -2h34.5t46 2t63 6 q87 8 150.5 -9t75.5 -55q8 -26 39 -59.5t48 -35.5q25 0 180 -119t164 -119q2 0 94.5 90t214 195.5t186.5 132.5q62 30 72 44q14 24 50.5 17t50.5 -31q17 -32 -2 -109q-19 -76 -14.5 -285.5t-4.5 -247.5q-34 -129 -12 -154q17 -18 41 -141.5t26 -198.5q2 -60 -4 -72t-40 -14 q-49 -4 -125 34q-50 28 -64 43.5t-20 53.5q-7 36 -38 75t-137 138q-163 149 -222 193.5t-86 36.5q-26 -9 -90 -98.5t-88 -110.5q-36 -28 -65 -82.5t-80.5 -110.5t-73.5 -56q-14 0 -35.5 -19t-44.5 -24t-99 20q-53 23 -92 22t-89 -31q-63 -32 -114 -43t-70 3q-18 15 -19 66z M495 1125q-25 -26 16 -165q18 -63 23.5 -195.5t6.5 -234.5t7 -108q10 -10 75 40.5t111 100.5q61 73 116 153.5t50 95.5q-4 14 -95.5 99t-148.5 125l-86 63q-36 28 -49.5 32t-25.5 -6zM1097 819l131 -135q68 -68 118.5 -113.5t70.5 -59.5t42 -35t45 -54q23 -30 41.5 -47 t29.5 -18t15 11t-1 38.5t-19 62.5q-21 48 -24.5 144t15.5 130q15 29 15 87t-18 104q-18 40 -2 129t10 120q-5 32 -22 38.5t-44 -10.5t-56 -40.5t-71 -57t-75 -54.5q-34 -24 -119 -131z" />
<glyph unicode="&#x27d6;" horiz-adv-x="2049" d="M24 1099q-9 12 12.5 61t33.5 49q8 0 50.5 -30t54.5 -30t73.5 -52.5t93.5 -67.5q36 -14 93 -48l135 -78q42 -23 81 -48.5t57 -37.5t24 -12q7 0 67 39.5t139 90t123 69.5q50 24 116.5 78.5t113 98t57.5 43.5q17 0 57 40q30 28 55 34t112 4q122 0 189 18q68 19 133.5 18 t86.5 -22q16 -14 19.5 -48t-11.5 -55q-12 -16 -190 -15q-149 2 -203 -16t-66 -77q-9 -38 -22 -63q-14 -27 -14 -148.5t14 -148.5q14 -28 17 -175q5 -142 23 -197t68 -73q44 -15 119 -9.5t149 31.5q46 15 62 15.5t45 -19.5q38 -23 39 -57.5t-37 -68.5q-30 -28 -40 -28.5 t-49 19.5q-25 13 -49 17.5t-43 2.5t-67.5 -9t-94.5 -9q-76 -2 -110 -36q-26 -25 -77.5 -31t-92.5 8.5t-41 40.5q0 14 -52.5 55.5t-52.5 47.5q0 18 -61.5 78.5t-95.5 73.5q-46 19 -143 120q-44 46 -72.5 69t-48.5 35t-40 3t-35 -20t-47.5 -40.5t-62.5 -50.5 q-127 -93 -197.5 -159.5t-116.5 -135.5q-38 -57 -54 -68.5t-47 -9.5q-46 4 -70 47t-26 93.5t-5 107t-13 76.5q-19 32 -38 315t-27 295zM139 879q2 -1 13 -57.5t17 -153.5q10 -158 42 -214.5t47.5 -62t65.5 43.5q49 42 144 108.5t110 66.5q8 0 13.5 6t9 16t14.5 20t31 16 q38 15 38 37.5t-37 32t-94 57.5q-36 34 -75 56t-122 58q-34 13 -71.5 36t-57.5 35t-40 17t-31 -10t-15 -51q-4 -56 -2 -57zM842 745l38 -30q12 -10 137.5 -125t232.5 -196.5t153 -81.5q14 0 6 228q-10 333 -9 414.5t13 118.5q17 54 10 66q-8 13 -27 3.5t-82 -62.5l-137 -110 q-34 -28 -139.5 -87.5t-143.5 -91.5z" />
<glyph unicode="&#x27d7;" horiz-adv-x="2075" d="M21.5 198q-2.5 51 14.5 62q17 10 183 29q47 7 62 8t47 9t38.5 7t26.5 13t21 15t11 25t9 30.5t1 42.5t1 50.5t-1 67.5q-7 196 -13 248q-34 258 -66 313q-12 27 -30 31.5t-90 2.5q-61 -5 -102 -13t-45.5 -11t-35.5 1q-21 6 -26.5 18.5t-0.5 52.5l4 62l82 -4q24 0 57.5 -2 t45 -4t34.5 0t47 4t62 6q87 8 150.5 -9t75.5 -55q10 -28 41 -61.5t46 -33.5q25 0 223 -153l114 -87l91 61q44 30 154 88.5t188 134.5q95 91 112 91t55 38q28 28 81.5 37.5t98.5 11.5t54 10q12 12 79.5 5t84.5 -22q17 -18 19 -51t-12 -56q-13 -20 -119 -13q-76 6 -94.5 2 t-42.5 -31q-30 -40 -30 -74t-14 -44q-15 -9 -15 -136.5t15 -155.5q6 -14 12 -126t22 -216.5t52 -116.5q21 -9 99 18q55 19 72 19.5t47 -19.5q38 -23 38 -57.5t-36 -68.5q-30 -28 -40.5 -28.5t-50.5 19.5q-93 51 -181 -20q-46 -38 -129.5 -30t-83.5 50q0 15 -53 55t-53 46 q0 19 -61 79.5t-95 73.5q-46 18 -135 111q-40 42 -62 63t-45.5 36t-36 16t-30 -10t-31.5 -29t-38 -54q-42 -65 -88.5 -111t-66.5 -86q-30 -55 -81 -110.5t-72 -55.5q-16 0 -40.5 -22t-52.5 -22q-29 0 -61.5 11t-55 22t-62.5 9t-90 -28q-152 -70 -184 -44q-16 14 -18.5 65z M511 914q18 -61 23.5 -193.5t6.5 -234.5t7 -108q10 -10 76 40.5t110 100.5q55 63 112 146.5t57 97.5q0 24 -181.5 175t-204.5 151q-57 0 -6 -175zM1046 759l39 -29q12 -10 137.5 -125.5t232 -196.5t153.5 -81q12 0 6 228q-10 334 -10.5 415t12.5 119q19 52 10 65 q-6 12 -25 2.5t-84 -61.5l-136 -110q-36 -28 -140 -88t-142 -92z" />
<glyph unicode="&#x27e8;" horiz-adv-x="1986" d="M21 -347.5q0 15.5 29.5 15.5t29.5 -15.5t-30 -15.5q-29 0 -29 15.5zM249 985q11 25 29 48.5t85 93.5q38 40 102 133.5t64 110.5q0 8 5.5 15t15 15t26 33.5t36.5 65.5q16 36 33 62t27 36t16 20t6 23q0 28 9.5 37t104.5 9q68 0 81.5 -5t13.5 -28.5t-19 -42.5t-47.5 -34.5 t-71 -63t-79.5 -116.5q-32 -61 -58 -100t-60 -103q-24 -47 -48.5 -86t-38.5 -58t-27 -37.5t-18 -30.5t-4 -28t9 -38q6 -24 25 -48t37 -38.5t52.5 -43.5t54.5 -45q46 -41 56.5 -41t40.5 -48q64 -99 95 -138t122 -130q74 -74 85.5 -94t-1 -53.5t-30.5 -43.5t-86 -24 q-30 -4 -43.5 1t-27.5 29q-19 30 -22.5 51.5t-1.5 35.5t-16 44t-66 77q-81 82 -81 91t-62 88q-55 68 -140.5 140.5t-119.5 78.5q-30 7 -53 75t-10 105zM1757 -363q0 15 37 15t37 -15t-38 -15q-36 0 -36 15zM1936 -363q0 15 15 15t14.5 -15t-14.5 -15q-15 0 -15 15z" />
<glyph unicode="&#x27e9;" horiz-adv-x="862" d="M21 1687h86q61 0 78.5 -6t27.5 -31q24 -52 160 -189.5t259 -256.5t123 -135q0 -12 20 -32t39 -41.5t27.5 -47.5t-20 -59t-98.5 -66q-89 -42 -253 -239.5t-164 -259.5q0 -18 -38 -69.5t-38 -64.5q0 -21 -27 -65q-21 -36 -53 -41.5t-63 19.5q-24 19 -20.5 59.5t28.5 56.5 q23 13 45.5 77t60.5 88q44 26 44 34q2 24 120 181.5t160 189.5q47 38 86 92.5t39 84.5q0 17 -22 47.5t-67.5 79t-95.5 98t-127.5 129t-141.5 146.5q-123 128 -139.5 133.5t-24.5 45.5zM590.5 -363q-0.5 15 21.5 15t23 -15t-23 -15q-21 0 -21.5 15z" />
<glyph unicode="&#x2a0d;" horiz-adv-x="1081" d="M21 61q4 20 15.5 26t58.5 4q70 -4 138.5 26t98.5 79q30 48 46 116q16 59 22.5 313.5t-8.5 262.5q-12 8 -42 -10q-30 -19 -54 -0.5t-20 52.5q2 19 16 27.5t46 12.5q42 4 54.5 19t40.5 84q36 97 36 138q0 28 25 71t67 79q17 14 27.5 38t33 54t68.5 64q76 53 80 67 q5 10 38.5 23t82.5 17t107 -16q48 -21 59.5 -54t-17.5 -63q-20 -20 -32 -20.5t-54 23.5q-74 38 -124.5 20t-161.5 -124q-64 -58 -87.5 -97t-32 -79.5t-23.5 -68.5q-12 -27 -21 -92q-11 -65 13.5 -76t126.5 13q68 16 89.5 16t45.5 -14q36 -24 29 -64l-5 -40h-151 q-151 0 -171 -19q-14 -14 -2 -228.5t-6 -290.5q-19 -59 -19.5 -95t-54.5 -118q-32 -46 -55.5 -66.5t-56.5 -30.5q-58 -16 -74 -38q-38 -42 -143 2q-32 15 -41.5 25.5t-7.5 31.5z" />
</font>
</defs>
</svg>
